<svg width="1576" height="1985" viewBox="0 0 1576 1985" fill="none" xmlns="http://www.w3.org/2000/svg">
<path d="M645.836 1690.03C647.948 1690.03 649.659 1691.74 649.659 1693.85C649.659 1695.96 647.948 1697.67 645.836 1697.67C643.725 1697.67 642.014 1695.96 642.014 1693.85C642.014 1691.74 643.725 1690.03 645.836 1690.03Z" fill="#D2C8C7"/>
<path d="M617.164 1690.03C619.275 1690.03 620.986 1691.74 620.986 1693.85C620.986 1695.96 619.275 1697.67 617.164 1697.67C615.053 1697.67 613.341 1695.96 613.341 1693.85C613.341 1691.74 615.053 1690.03 617.164 1690.03Z" fill="#D2C8C7"/>
<ellipse cx="645.836" cy="1722.52" rx="3.82209" ry="3.82245" transform="rotate(-90 645.836 1722.52)" fill="#D2C8C7"/>
<ellipse cx="617.164" cy="1808.51" rx="3.82209" ry="3.82245" transform="rotate(-90 617.164 1808.51)" fill="#D2C8C7"/>
<ellipse cx="645.836" cy="1751.18" rx="3.82209" ry="3.82245" transform="rotate(-90 645.836 1751.18)" fill="#D2C8C7"/>
<ellipse cx="617.164" cy="1722.52" rx="3.82209" ry="3.82245" transform="rotate(-90 617.164 1722.52)" fill="#D2C8C7"/>
<ellipse cx="617.164" cy="1751.18" rx="3.82209" ry="3.82245" transform="rotate(-90 617.164 1751.18)" fill="#D2C8C7"/>
<ellipse cx="645.836" cy="1779.85" rx="3.82209" ry="3.82245" transform="rotate(-90 645.836 1779.85)" fill="#D2C8C7"/>
<ellipse cx="617.164" cy="1779.85" rx="3.82209" ry="3.82245" transform="rotate(-90 617.164 1779.85)" fill="#D2C8C7"/>
<ellipse cx="645.836" cy="1808.51" rx="3.82209" ry="3.82245" transform="rotate(-90 645.836 1808.51)" fill="#D2C8C7"/>
<ellipse cx="645.836" cy="1837.18" rx="3.82209" ry="3.82245" transform="rotate(-90 645.836 1837.18)" fill="#D2C8C7"/>
<ellipse cx="617.164" cy="1837.18" rx="3.82209" ry="3.82245" transform="rotate(-90 617.164 1837.18)" fill="#D2C8C7"/>
<path d="M588.491 1690.03C590.602 1690.03 592.313 1691.74 592.313 1693.85C592.313 1695.96 590.602 1697.67 588.491 1697.67C586.38 1697.67 584.668 1695.96 584.668 1693.85C584.668 1691.74 586.38 1690.03 588.491 1690.03Z" fill="#D2C8C7"/>
<path d="M559.822 1690.03C561.934 1690.03 563.645 1691.74 563.645 1693.85C563.645 1695.96 561.934 1697.67 559.822 1697.67C557.711 1697.67 556 1695.96 556 1693.85C556 1691.74 557.711 1690.03 559.822 1690.03Z" fill="#D2C8C7"/>
<ellipse cx="588.491" cy="1722.52" rx="3.82209" ry="3.82245" transform="rotate(-90 588.491 1722.52)" fill="#D2C8C7"/>
<ellipse cx="559.823" cy="1808.51" rx="3.82209" ry="3.82245" transform="rotate(-90 559.823 1808.51)" fill="#D2C8C7"/>
<ellipse cx="588.491" cy="1751.18" rx="3.82209" ry="3.82245" transform="rotate(-90 588.491 1751.18)" fill="#D2C8C7"/>
<ellipse cx="559.823" cy="1722.52" rx="3.82209" ry="3.82245" transform="rotate(-90 559.823 1722.52)" fill="#D2C8C7"/>
<ellipse cx="559.823" cy="1751.18" rx="3.82209" ry="3.82245" transform="rotate(-90 559.823 1751.18)" fill="#D2C8C7"/>
<ellipse cx="588.491" cy="1779.85" rx="3.82209" ry="3.82245" transform="rotate(-90 588.491 1779.85)" fill="#D2C8C7"/>
<ellipse cx="559.822" cy="1779.85" rx="3.82209" ry="3.82245" transform="rotate(-90 559.822 1779.85)" fill="#D2C8C7"/>
<ellipse cx="588.491" cy="1808.51" rx="3.82209" ry="3.82245" transform="rotate(-90 588.491 1808.51)" fill="#D2C8C7"/>
<ellipse cx="588.491" cy="1837.18" rx="3.82209" ry="3.82245" transform="rotate(-90 588.491 1837.18)" fill="#D2C8C7"/>
<ellipse cx="559.823" cy="1837.18" rx="3.82209" ry="3.82245" transform="rotate(-90 559.823 1837.18)" fill="#D2C8C7"/>
<path d="M703.178 1690.03C705.289 1690.03 707 1691.74 707 1693.85C707 1695.96 705.289 1697.67 703.178 1697.67C701.066 1697.67 699.355 1695.96 699.355 1693.85C699.355 1691.74 701.066 1690.03 703.178 1690.03Z" fill="#D2C8C7"/>
<path d="M674.509 1690.03C676.62 1690.03 678.332 1691.74 678.332 1693.85C678.332 1695.96 676.62 1697.67 674.509 1697.67C672.398 1697.67 670.687 1695.96 670.687 1693.85C670.687 1691.74 672.398 1690.03 674.509 1690.03Z" fill="#D2C8C7"/>
<ellipse cx="703.178" cy="1722.52" rx="3.82209" ry="3.82245" transform="rotate(-90 703.178 1722.52)" fill="#D2C8C7"/>
<ellipse cx="674.509" cy="1808.51" rx="3.82209" ry="3.82245" transform="rotate(-90 674.509 1808.51)" fill="#D2C8C7"/>
<ellipse cx="703.178" cy="1751.18" rx="3.82209" ry="3.82245" transform="rotate(-90 703.178 1751.18)" fill="#D2C8C7"/>
<ellipse cx="674.509" cy="1722.52" rx="3.82209" ry="3.82245" transform="rotate(-90 674.509 1722.52)" fill="#D2C8C7"/>
<ellipse cx="674.509" cy="1751.18" rx="3.82209" ry="3.82245" transform="rotate(-90 674.509 1751.18)" fill="#D2C8C7"/>
<ellipse cx="703.178" cy="1779.85" rx="3.82209" ry="3.82245" transform="rotate(-90 703.178 1779.85)" fill="#D2C8C7"/>
<ellipse cx="674.509" cy="1779.85" rx="3.82209" ry="3.82245" transform="rotate(-90 674.509 1779.85)" fill="#D2C8C7"/>
<ellipse cx="703.178" cy="1808.51" rx="3.82209" ry="3.82245" transform="rotate(-90 703.178 1808.51)" fill="#D2C8C7"/>
<ellipse cx="703.178" cy="1837.18" rx="3.82209" ry="3.82245" transform="rotate(-90 703.178 1837.18)" fill="#D2C8C7"/>
<ellipse cx="674.509" cy="1837.18" rx="3.82209" ry="3.82245" transform="rotate(-90 674.509 1837.18)" fill="#D2C8C7"/>
<path d="M1336.61 616.305C1342.73 616.305 1347.7 621.269 1347.7 627.393C1347.7 633.516 1342.73 638.48 1336.61 638.48C1330.48 638.48 1325.52 633.516 1325.52 627.393C1325.52 621.269 1330.48 616.305 1336.61 616.305Z" fill="#D2C8C7"/>
<path d="M1253.43 616.305C1259.55 616.305 1264.52 621.269 1264.52 627.393C1264.52 633.516 1259.55 638.48 1253.43 638.48C1247.31 638.48 1242.34 633.516 1242.34 627.393C1242.34 621.269 1247.31 616.305 1253.43 616.305Z" fill="#D2C8C7"/>
<ellipse cx="1336.61" cy="710.549" rx="11.0876" ry="11.0886" transform="rotate(-90 1336.61 710.549)" fill="#D2C8C7"/>
<ellipse cx="1253.43" cy="960.02" rx="11.0876" ry="11.0886" transform="rotate(-90 1253.43 960.02)" fill="#D2C8C7"/>
<ellipse cx="1336.61" cy="793.706" rx="11.0876" ry="11.0886" transform="rotate(-90 1336.61 793.706)" fill="#D2C8C7"/>
<ellipse cx="1253.43" cy="710.549" rx="11.0876" ry="11.0886" transform="rotate(-90 1253.43 710.549)" fill="#D2C8C7"/>
<ellipse cx="1253.43" cy="793.706" rx="11.0876" ry="11.0886" transform="rotate(-90 1253.43 793.706)" fill="#D2C8C7"/>
<ellipse cx="1336.61" cy="876.863" rx="11.0876" ry="11.0886" transform="rotate(-90 1336.61 876.863)" fill="#D2C8C7"/>
<ellipse cx="1253.43" cy="876.863" rx="11.0876" ry="11.0886" transform="rotate(-90 1253.43 876.863)" fill="#D2C8C7"/>
<ellipse cx="1336.61" cy="960.02" rx="11.0876" ry="11.0886" transform="rotate(-90 1336.61 960.02)" fill="#D2C8C7"/>
<ellipse cx="1336.61" cy="1043.18" rx="11.0876" ry="11.0886" transform="rotate(-90 1336.61 1043.18)" fill="#D2C8C7"/>
<ellipse cx="1253.43" cy="1043.18" rx="11.0876" ry="11.0886" transform="rotate(-90 1253.43 1043.18)" fill="#D2C8C7"/>
<path d="M1170.25 616.305C1176.38 616.305 1181.34 621.269 1181.34 627.393C1181.34 633.516 1176.38 638.48 1170.25 638.48C1164.13 638.48 1159.16 633.516 1159.16 627.393C1159.16 621.269 1164.13 616.305 1170.25 616.305Z" fill="#D2C8C7"/>
<path d="M1087.09 616.305C1093.21 616.305 1098.18 621.269 1098.18 627.393C1098.18 633.516 1093.21 638.48 1087.09 638.48C1080.96 638.48 1076 633.516 1076 627.393C1076 621.269 1080.96 616.305 1087.09 616.305Z" fill="#D2C8C7"/>
<ellipse cx="1170.25" cy="710.549" rx="11.0876" ry="11.0886" transform="rotate(-90 1170.25 710.549)" fill="#D2C8C7"/>
<ellipse cx="1087.09" cy="960.02" rx="11.0876" ry="11.0886" transform="rotate(-90 1087.09 960.02)" fill="#D2C8C7"/>
<ellipse cx="1170.25" cy="793.706" rx="11.0876" ry="11.0886" transform="rotate(-90 1170.25 793.706)" fill="#D2C8C7"/>
<ellipse cx="1087.09" cy="710.549" rx="11.0876" ry="11.0886" transform="rotate(-90 1087.09 710.549)" fill="#D2C8C7"/>
<ellipse cx="1087.09" cy="793.706" rx="11.0876" ry="11.0886" transform="rotate(-90 1087.09 793.706)" fill="#D2C8C7"/>
<ellipse cx="1170.25" cy="876.863" rx="11.0876" ry="11.0886" transform="rotate(-90 1170.25 876.863)" fill="#D2C8C7"/>
<ellipse cx="1087.09" cy="876.863" rx="11.0876" ry="11.0886" transform="rotate(-90 1087.09 876.863)" fill="#D2C8C7"/>
<ellipse cx="1170.25" cy="960.02" rx="11.0876" ry="11.0886" transform="rotate(-90 1170.25 960.02)" fill="#D2C8C7"/>
<ellipse cx="1170.25" cy="1043.18" rx="11.0876" ry="11.0886" transform="rotate(-90 1170.25 1043.18)" fill="#D2C8C7"/>
<ellipse cx="1087.09" cy="1043.18" rx="11.0876" ry="11.0886" transform="rotate(-90 1087.09 1043.18)" fill="#D2C8C7"/>
<path d="M1502.95 616.305C1509.07 616.305 1514.04 621.269 1514.04 627.393C1514.04 633.516 1509.07 638.48 1502.95 638.48C1496.83 638.48 1491.86 633.516 1491.86 627.393C1491.86 621.269 1496.83 616.305 1502.95 616.305Z" fill="#D2C8C7"/>
<path d="M1419.79 616.305C1425.91 616.305 1430.87 621.269 1430.87 627.393C1430.87 633.516 1425.91 638.48 1419.79 638.48C1413.66 638.48 1408.7 633.516 1408.7 627.393C1408.7 621.269 1413.66 616.305 1419.79 616.305Z" fill="#D2C8C7"/>
<ellipse cx="1502.95" cy="710.549" rx="11.0876" ry="11.0886" transform="rotate(-90 1502.95 710.549)" fill="#D2C8C7"/>
<ellipse cx="1419.79" cy="960.02" rx="11.0876" ry="11.0886" transform="rotate(-90 1419.79 960.02)" fill="#D2C8C7"/>
<ellipse cx="1502.95" cy="793.706" rx="11.0876" ry="11.0886" transform="rotate(-90 1502.95 793.706)" fill="#D2C8C7"/>
<ellipse cx="1419.79" cy="710.55" rx="11.0876" ry="11.0886" transform="rotate(-90 1419.79 710.55)" fill="#D2C8C7"/>
<ellipse cx="1419.79" cy="793.706" rx="11.0876" ry="11.0886" transform="rotate(-90 1419.79 793.706)" fill="#D2C8C7"/>
<ellipse cx="1502.95" cy="876.863" rx="11.0876" ry="11.0886" transform="rotate(-90 1502.95 876.863)" fill="#D2C8C7"/>
<ellipse cx="1419.79" cy="876.863" rx="11.0876" ry="11.0886" transform="rotate(-90 1419.79 876.863)" fill="#D2C8C7"/>
<ellipse cx="1502.95" cy="960.02" rx="11.0876" ry="11.0886" transform="rotate(-90 1502.95 960.02)" fill="#D2C8C7"/>
<ellipse cx="1502.95" cy="1043.18" rx="11.0876" ry="11.0886" transform="rotate(-90 1502.95 1043.18)" fill="#D2C8C7"/>
<ellipse cx="1419.79" cy="1043.18" rx="11.0876" ry="11.0886" transform="rotate(-90 1419.79 1043.18)" fill="#D2C8C7"/>
<path d="M1119.33 1441.21C1123.48 1435.66 1130.92 1434.65 1135.96 1438.95C1140.99 1443.25 1141.72 1451.24 1137.57 1456.79C1133.43 1462.34 1125.98 1463.35 1120.95 1459.05C1115.91 1454.74 1115.19 1446.76 1119.33 1441.21Z" fill="#D2C8C7"/>
<path d="M1063.06 1516.57C1067.2 1511.02 1074.64 1510.01 1079.68 1514.31C1084.72 1518.61 1085.44 1526.6 1081.3 1532.15C1077.15 1537.7 1069.71 1538.71 1064.67 1534.41C1059.64 1530.11 1058.91 1522.12 1063.06 1516.57Z" fill="#D2C8C7"/>
<ellipse cx="11.993" cy="12.541" rx="11.993" ry="12.541" transform="matrix(-0.760422 -0.649429 0.598318 -0.801259 1198.47 1525.25)" fill="#D2C8C7"/>
<ellipse cx="11.993" cy="12.541" rx="11.993" ry="12.541" transform="matrix(-0.760422 -0.649429 0.598318 -0.801259 1347.38 1775.86)" fill="#D2C8C7"/>
<ellipse cx="11.993" cy="12.541" rx="11.993" ry="12.541" transform="matrix(-0.760422 -0.649429 0.598318 -0.801259 1266.86 1583.66)" fill="#D2C8C7"/>
<ellipse cx="11.993" cy="12.541" rx="11.993" ry="12.541" transform="matrix(-0.760422 -0.649429 0.598318 -0.801259 1142.19 1600.61)" fill="#D2C8C7"/>
<ellipse cx="11.993" cy="12.541" rx="11.993" ry="12.541" transform="matrix(-0.760422 -0.649429 0.598318 -0.801259 1210.59 1659.03)" fill="#D2C8C7"/>
<ellipse cx="11.993" cy="12.541" rx="11.993" ry="12.541" transform="matrix(-0.760422 -0.649429 0.598318 -0.801259 1335.26 1642.08)" fill="#D2C8C7"/>
<ellipse cx="11.993" cy="12.541" rx="11.993" ry="12.541" transform="matrix(-0.760422 -0.649429 0.598318 -0.801259 1278.99 1717.44)" fill="#D2C8C7"/>
<ellipse cx="11.993" cy="12.541" rx="11.993" ry="12.541" transform="matrix(-0.760422 -0.649429 0.598318 -0.801259 1403.66 1700.49)" fill="#D2C8C7"/>
<ellipse cx="11.993" cy="12.541" rx="11.993" ry="12.541" transform="matrix(-0.760422 -0.649429 0.598318 -0.801259 1472.06 1758.91)" fill="#D2C8C7"/>
<ellipse cx="11.993" cy="12.541" rx="11.993" ry="12.541" transform="matrix(-0.760422 -0.649429 0.598318 -0.801259 1415.78 1834.27)" fill="#D2C8C7"/>
<path d="M1006.78 1591.94C1010.92 1586.39 1018.37 1585.38 1023.4 1589.68C1028.44 1593.98 1029.16 1601.96 1025.02 1607.51C1020.88 1613.06 1013.43 1614.08 1008.4 1609.77C1003.36 1605.47 1002.64 1597.49 1006.78 1591.94Z" fill="#D2C8C7"/>
<path d="M950.504 1667.3C954.648 1661.75 962.09 1660.74 967.127 1665.04C972.163 1669.34 972.887 1677.33 968.743 1682.88C964.599 1688.43 957.157 1689.44 952.12 1685.14C947.083 1680.84 946.36 1672.85 950.504 1667.3Z" fill="#D2C8C7"/>
<ellipse cx="11.993" cy="12.541" rx="11.993" ry="12.541" transform="matrix(-0.760422 -0.649429 0.598318 -0.801259 1085.91 1675.98)" fill="#D2C8C7"/>
<ellipse cx="11.993" cy="12.541" rx="11.993" ry="12.541" transform="matrix(-0.760422 -0.649429 0.598318 -0.801259 1234.83 1926.59)" fill="#D2C8C7"/>
<ellipse cx="11.993" cy="12.541" rx="11.993" ry="12.541" transform="matrix(-0.760422 -0.649429 0.598318 -0.801259 1154.31 1734.39)" fill="#D2C8C7"/>
<ellipse cx="11.993" cy="12.541" rx="11.993" ry="12.541" transform="matrix(-0.760422 -0.649429 0.598318 -0.801259 1029.64 1751.34)" fill="#D2C8C7"/>
<ellipse cx="11.993" cy="12.541" rx="11.993" ry="12.541" transform="matrix(-0.760422 -0.649429 0.598318 -0.801259 1098.04 1809.76)" fill="#D2C8C7"/>
<ellipse cx="11.993" cy="12.541" rx="11.993" ry="12.541" transform="matrix(-0.760422 -0.649429 0.598318 -0.801259 1222.71 1792.81)" fill="#D2C8C7"/>
<ellipse cx="11.993" cy="12.541" rx="11.993" ry="12.541" transform="matrix(-0.760422 -0.649429 0.598318 -0.801259 1166.43 1868.17)" fill="#D2C8C7"/>
<ellipse cx="11.993" cy="12.541" rx="11.993" ry="12.541" transform="matrix(-0.760422 -0.649429 0.598318 -0.801259 1291.11 1851.22)" fill="#D2C8C7"/>
<ellipse cx="11.993" cy="12.541" rx="11.993" ry="12.541" transform="matrix(-0.760422 -0.649429 0.598318 -0.801259 1359.51 1909.64)" fill="#D2C8C7"/>
<ellipse cx="11.993" cy="12.541" rx="11.993" ry="12.541" transform="matrix(-0.760422 -0.649429 0.598318 -0.801259 1303.23 1985)" fill="#D2C8C7"/>
<path d="M1231.88 1290.48C1236.03 1284.93 1243.47 1283.92 1248.51 1288.22C1253.54 1292.52 1254.27 1300.51 1250.12 1306.06C1245.98 1311.61 1238.54 1312.62 1233.5 1308.32C1228.46 1304.02 1227.74 1296.03 1231.88 1290.48Z" fill="#D2C8C7"/>
<path d="M1175.61 1365.84C1179.75 1360.29 1187.19 1359.28 1192.23 1363.58C1197.27 1367.89 1197.99 1375.87 1193.85 1381.42C1189.7 1386.97 1182.26 1387.98 1177.22 1383.68C1172.19 1379.38 1171.46 1371.39 1175.61 1365.84Z" fill="#D2C8C7"/>
<ellipse cx="11.993" cy="12.541" rx="11.993" ry="12.541" transform="matrix(-0.760422 -0.649429 0.598318 -0.801259 1311.02 1374.52)" fill="#D2C8C7"/>
<ellipse cx="11.993" cy="12.541" rx="11.993" ry="12.541" transform="matrix(-0.760422 -0.649429 0.598318 -0.801259 1459.94 1625.13)" fill="#D2C8C7"/>
<ellipse cx="11.993" cy="12.541" rx="11.993" ry="12.541" transform="matrix(-0.760422 -0.649429 0.598318 -0.801259 1379.42 1432.94)" fill="#D2C8C7"/>
<ellipse cx="11.993" cy="12.541" rx="11.993" ry="12.541" transform="matrix(-0.760422 -0.649429 0.598318 -0.801259 1254.74 1449.89)" fill="#D2C8C7"/>
<ellipse cx="11.993" cy="12.541" rx="11.993" ry="12.541" transform="matrix(-0.760422 -0.649429 0.598318 -0.801259 1323.14 1508.3)" fill="#D2C8C7"/>
<ellipse cx="11.993" cy="12.541" rx="11.993" ry="12.541" transform="matrix(-0.760422 -0.649429 0.598318 -0.801259 1447.81 1491.35)" fill="#D2C8C7"/>
<ellipse cx="11.993" cy="12.541" rx="11.993" ry="12.541" transform="matrix(-0.760422 -0.649429 0.598318 -0.801259 1391.54 1566.71)" fill="#D2C8C7"/>
<ellipse cx="11.993" cy="12.541" rx="11.993" ry="12.541" transform="matrix(-0.760422 -0.649429 0.598318 -0.801259 1516.21 1549.76)" fill="#D2C8C7"/>
<ellipse cx="11.993" cy="12.541" rx="11.993" ry="12.541" transform="matrix(-0.760422 -0.649429 0.598318 -0.801259 1584.61 1608.18)" fill="#D2C8C7"/>
<ellipse cx="11.993" cy="12.541" rx="11.993" ry="12.541" transform="matrix(-0.760422 -0.649429 0.598318 -0.801259 1528.33 1683.54)" fill="#D2C8C7"/>
<ellipse cx="295.203" cy="1059.68" rx="18.3291" ry="16.819" transform="rotate(-180 295.203 1059.68)" fill="#D2C8C7"/>
<ellipse cx="20.266" cy="933.534" rx="18.3291" ry="16.819" transform="rotate(-180 20.266 933.534)" fill="#D2C8C7"/>
<ellipse cx="20.2659" cy="1059.68" rx="18.3291" ry="16.819" transform="rotate(-180 20.2659 1059.68)" fill="#D2C8C7"/>
<ellipse cx="157.734" cy="933.534" rx="18.3291" ry="16.819" transform="rotate(-180 157.734 933.534)" fill="#D2C8C7"/>
<ellipse cx="157.734" cy="1059.68" rx="18.3291" ry="16.819" transform="rotate(-180 157.734 1059.68)" fill="#D2C8C7"/>
<ellipse cx="295.203" cy="933.534" rx="18.3291" ry="16.819" transform="rotate(-180 295.203 933.534)" fill="#D2C8C7"/>
<ellipse cx="432.671" cy="933.534" rx="18.3291" ry="16.819" transform="rotate(-180 432.671 933.534)" fill="#D2C8C7"/>
<ellipse cx="432.671" cy="1059.68" rx="18.3291" ry="16.819" transform="rotate(-180 432.671 1059.68)" fill="#D2C8C7"/>
<ellipse cx="295.202" cy="1311.96" rx="18.3291" ry="16.819" transform="rotate(-180 295.202 1311.96)" fill="#D2C8C7"/>
<ellipse cx="20.266" cy="1185.82" rx="18.3291" ry="16.819" transform="rotate(-180 20.266 1185.82)" fill="#D2C8C7"/>
<ellipse cx="20.266" cy="1311.96" rx="18.3291" ry="16.819" transform="rotate(-180 20.266 1311.96)" fill="#D2C8C7"/>
<ellipse cx="157.734" cy="1185.82" rx="18.3291" ry="16.819" transform="rotate(-180 157.734 1185.82)" fill="#D2C8C7"/>
<ellipse cx="157.734" cy="1311.96" rx="18.3291" ry="16.819" transform="rotate(-180 157.734 1311.96)" fill="#D2C8C7"/>
<ellipse cx="295.203" cy="1185.82" rx="18.3291" ry="16.819" transform="rotate(-180 295.203 1185.82)" fill="#D2C8C7"/>
<ellipse cx="432.671" cy="1185.82" rx="18.3291" ry="16.819" transform="rotate(-180 432.671 1185.82)" fill="#D2C8C7"/>
<ellipse cx="432.671" cy="1311.96" rx="18.3291" ry="16.819" transform="rotate(-180 432.671 1311.96)" fill="#D2C8C7"/>
<ellipse cx="295.203" cy="807.391" rx="18.3291" ry="16.819" transform="rotate(-180 295.203 807.391)" fill="#D2C8C7"/>
<ellipse cx="20.266" cy="681.249" rx="18.3291" ry="16.819" transform="rotate(-180 20.266 681.249)" fill="#D2C8C7"/>
<ellipse cx="20.266" cy="807.391" rx="18.3291" ry="16.819" transform="rotate(-180 20.266 807.391)" fill="#D2C8C7"/>
<ellipse cx="157.734" cy="681.249" rx="18.3291" ry="16.819" transform="rotate(-180 157.734 681.249)" fill="#D2C8C7"/>
<ellipse cx="157.734" cy="807.391" rx="18.3291" ry="16.819" transform="rotate(-180 157.734 807.391)" fill="#D2C8C7"/>
<ellipse cx="295.203" cy="681.249" rx="18.3291" ry="16.819" transform="rotate(-180 295.203 681.249)" fill="#D2C8C7"/>
<ellipse cx="432.671" cy="681.249" rx="18.3291" ry="16.819" transform="rotate(-180 432.671 681.249)" fill="#D2C8C7"/>
<ellipse cx="432.671" cy="807.391" rx="18.3291" ry="16.819" transform="rotate(-180 432.671 807.391)" fill="#D2C8C7"/>
<path d="M467.07 329.998C467.033 327.591 469.13 325.602 471.753 325.556C474.376 325.51 476.533 327.424 476.569 329.831C476.606 332.238 474.51 334.227 471.887 334.273C469.263 334.319 467.107 332.405 467.07 329.998Z" fill="#D2C8C7"/>
<path d="M467.571 362.686C467.535 360.279 469.631 358.29 472.254 358.244C474.878 358.198 477.034 360.112 477.071 362.519C477.108 364.927 475.011 366.915 472.388 366.961C469.765 367.007 467.608 365.093 467.571 362.686Z" fill="#D2C8C7"/>
<ellipse cx="4.75048" cy="4.35894" rx="4.75048" ry="4.35894" transform="matrix(-0.999846 0.0175449 -0.0153408 -0.999882 512.259 333.565)" fill="#D2C8C7"/>
<ellipse cx="4.75048" cy="4.35894" rx="4.75048" ry="4.35894" transform="matrix(-0.999846 0.0175449 -0.0153408 -0.999882 619.63 364.377)" fill="#D2C8C7"/>
<ellipse cx="4.75048" cy="4.35894" rx="4.75048" ry="4.35894" transform="matrix(-0.999846 0.0175449 -0.0153408 -0.999882 547.883 332.939)" fill="#D2C8C7"/>
<ellipse cx="4.75048" cy="4.35894" rx="4.75048" ry="4.35894" transform="matrix(-0.999846 0.0175449 -0.0153408 -0.999882 512.761 366.253)" fill="#D2C8C7"/>
<ellipse cx="4.75048" cy="4.35894" rx="4.75048" ry="4.35894" transform="matrix(-0.999846 0.0175449 -0.0153408 -0.999882 548.384 365.628)" fill="#D2C8C7"/>
<ellipse cx="4.75048" cy="4.35894" rx="4.75048" ry="4.35894" transform="matrix(-0.999846 0.0175449 -0.0153408 -0.999882 583.506 332.314)" fill="#D2C8C7"/>
<ellipse cx="4.75048" cy="4.35894" rx="4.75048" ry="4.35894" transform="matrix(-0.999846 0.0175449 -0.0153408 -0.999882 584.007 365.003)" fill="#D2C8C7"/>
<ellipse cx="4.75048" cy="4.35894" rx="4.75048" ry="4.35894" transform="matrix(-0.999846 0.0175449 -0.0153408 -0.999882 619.129 331.689)" fill="#D2C8C7"/>
<ellipse cx="4.75048" cy="4.35894" rx="4.75048" ry="4.35894" transform="matrix(-0.999846 0.0175449 -0.0153408 -0.999882 654.752 331.064)" fill="#D2C8C7"/>
<ellipse cx="4.75048" cy="4.35894" rx="4.75048" ry="4.35894" transform="matrix(-0.999846 0.0175449 -0.0153408 -0.999882 655.253 363.752)" fill="#D2C8C7"/>
<path d="M468.073 395.374C468.036 392.967 470.133 390.979 472.756 390.932C475.379 390.886 477.536 392.8 477.572 395.208C477.609 397.615 475.513 399.603 472.89 399.649C470.266 399.695 468.11 397.781 468.073 395.374Z" fill="#D2C8C7"/>
<path d="M468.575 428.062C468.538 425.655 470.634 423.667 473.257 423.621C475.881 423.575 478.037 425.489 478.074 427.896C478.111 430.303 476.014 432.291 473.391 432.337C470.768 432.384 468.611 430.47 468.575 428.062Z" fill="#D2C8C7"/>
<ellipse cx="4.75048" cy="4.35894" rx="4.75048" ry="4.35894" transform="matrix(-0.999846 0.0175449 -0.0153408 -0.999882 513.262 398.941)" fill="#D2C8C7"/>
<ellipse cx="4.75048" cy="4.35894" rx="4.75048" ry="4.35894" transform="matrix(-0.999846 0.0175449 -0.0153408 -0.999882 620.634 429.754)" fill="#D2C8C7"/>
<ellipse cx="4.75048" cy="4.35894" rx="4.75048" ry="4.35894" transform="matrix(-0.999846 0.0175449 -0.0153408 -0.999882 548.886 398.316)" fill="#D2C8C7"/>
<ellipse cx="4.75048" cy="4.35894" rx="4.75048" ry="4.35894" transform="matrix(-0.999846 0.0175449 -0.0153408 -0.999882 513.764 431.629)" fill="#D2C8C7"/>
<ellipse cx="4.75048" cy="4.35894" rx="4.75048" ry="4.35894" transform="matrix(-0.999846 0.0175449 -0.0153408 -0.999882 549.387 431.004)" fill="#D2C8C7"/>
<ellipse cx="4.75048" cy="4.35894" rx="4.75048" ry="4.35894" transform="matrix(-0.999846 0.0175449 -0.0153408 -0.999882 584.509 397.691)" fill="#D2C8C7"/>
<ellipse cx="4.75048" cy="4.35894" rx="4.75048" ry="4.35894" transform="matrix(-0.999846 0.0175449 -0.0153408 -0.999882 585.01 430.379)" fill="#D2C8C7"/>
<ellipse cx="4.75048" cy="4.35894" rx="4.75048" ry="4.35894" transform="matrix(-0.999846 0.0175449 -0.0153408 -0.999882 620.132 397.066)" fill="#D2C8C7"/>
<ellipse cx="4.75048" cy="4.35894" rx="4.75048" ry="4.35894" transform="matrix(-0.999846 0.0175449 -0.0153408 -0.999882 655.755 396.44)" fill="#D2C8C7"/>
<ellipse cx="4.75048" cy="4.35894" rx="4.75048" ry="4.35894" transform="matrix(-0.999846 0.0175449 -0.0153408 -0.999882 656.256 429.129)" fill="#D2C8C7"/>
<path d="M466.067 264.622C466.03 262.214 468.127 260.226 470.75 260.18C473.373 260.134 475.529 262.048 475.566 264.455C475.603 266.862 473.507 268.851 470.884 268.897C468.26 268.943 466.104 267.029 466.067 264.622Z" fill="#D2C8C7"/>
<path d="M466.568 297.31C466.531 294.903 468.628 292.914 471.251 292.868C473.875 292.822 476.031 294.736 476.068 297.143C476.105 299.55 474.008 301.539 471.385 301.585C468.762 301.631 466.605 299.717 466.568 297.31Z" fill="#D2C8C7"/>
<ellipse cx="4.75048" cy="4.35894" rx="4.75048" ry="4.35894" transform="matrix(-0.999846 0.0175449 -0.0153408 -0.999882 511.256 268.188)" fill="#D2C8C7"/>
<ellipse cx="4.75048" cy="4.35894" rx="4.75048" ry="4.35894" transform="matrix(-0.999846 0.0175449 -0.0153408 -0.999882 618.628 299.001)" fill="#D2C8C7"/>
<ellipse cx="4.75048" cy="4.35894" rx="4.75048" ry="4.35894" transform="matrix(-0.999846 0.0175449 -0.0153408 -0.999882 546.88 267.563)" fill="#D2C8C7"/>
<ellipse cx="4.75048" cy="4.35894" rx="4.75048" ry="4.35894" transform="matrix(-0.999846 0.0175449 -0.0153408 -0.999882 511.758 300.876)" fill="#D2C8C7"/>
<ellipse cx="4.75048" cy="4.35894" rx="4.75048" ry="4.35894" transform="matrix(-0.999846 0.0175449 -0.0153408 -0.999882 547.381 300.251)" fill="#D2C8C7"/>
<ellipse cx="4.75048" cy="4.35894" rx="4.75048" ry="4.35894" transform="matrix(-0.999846 0.0175449 -0.0153408 -0.999882 582.503 266.938)" fill="#D2C8C7"/>
<ellipse cx="4.75048" cy="4.35894" rx="4.75048" ry="4.35894" transform="matrix(-0.999846 0.0175449 -0.0153408 -0.999882 583.004 299.626)" fill="#D2C8C7"/>
<ellipse cx="4.75048" cy="4.35894" rx="4.75048" ry="4.35894" transform="matrix(-0.999846 0.0175449 -0.0153408 -0.999882 618.126 266.313)" fill="#D2C8C7"/>
<ellipse cx="4.75048" cy="4.35894" rx="4.75048" ry="4.35894" transform="matrix(-0.999846 0.0175449 -0.0153408 -0.999882 653.749 265.688)" fill="#D2C8C7"/>
<ellipse cx="4.75048" cy="4.35894" rx="4.75048" ry="4.35894" transform="matrix(-0.999846 0.0175449 -0.0153408 -0.999882 654.25 298.376)" fill="#D2C8C7"/>
<path d="M347.351 216.832C345.699 218.468 342.915 218.125 341.132 216.067C339.35 214.008 339.243 211.013 340.895 209.378C342.546 207.742 345.33 208.084 347.113 210.143C348.896 212.201 349.002 215.196 347.351 216.832Z" fill="#D2C8C7"/>
<path d="M369.778 194.617C368.127 196.253 365.343 195.91 363.56 193.852C361.777 191.793 361.671 188.798 363.322 187.162C364.974 185.527 367.758 185.869 369.541 187.928C371.323 189.986 371.43 192.981 369.778 194.617Z" fill="#D2C8C7"/>
<ellipse cx="4.9307" cy="4.20902" rx="4.9307" ry="4.20902" transform="matrix(0.654668 0.755917 -0.710464 0.703733 319.675 178.462)" fill="#D2C8C7"/>
<ellipse cx="4.9307" cy="4.20902" rx="4.9307" ry="4.20902" transform="matrix(0.654668 0.755917 -0.710464 0.703733 269.474 72.3844)" fill="#D2C8C7"/>
<ellipse cx="4.9307" cy="4.20902" rx="4.9307" ry="4.20902" transform="matrix(0.654668 0.755917 -0.710464 0.703733 295.465 150.508)" fill="#D2C8C7"/>
<ellipse cx="4.9307" cy="4.20902" rx="4.9307" ry="4.20902" transform="matrix(0.654668 0.755917 -0.710464 0.703733 342.103 156.246)" fill="#D2C8C7"/>
<ellipse cx="4.9307" cy="4.20902" rx="4.9307" ry="4.20902" transform="matrix(0.654668 0.755917 -0.710464 0.703733 317.893 128.292)" fill="#D2C8C7"/>
<ellipse cx="4.9307" cy="4.20902" rx="4.9307" ry="4.20902" transform="matrix(0.654668 0.755917 -0.710464 0.703733 271.256 122.554)" fill="#D2C8C7"/>
<ellipse cx="4.9307" cy="4.20902" rx="4.9307" ry="4.20902" transform="matrix(0.654668 0.755917 -0.710464 0.703733 293.683 100.338)" fill="#D2C8C7"/>
<ellipse cx="4.9307" cy="4.20902" rx="4.9307" ry="4.20902" transform="matrix(0.654668 0.755917 -0.710464 0.703733 247.046 94.5996)" fill="#D2C8C7"/>
<ellipse cx="4.9307" cy="4.20902" rx="4.9307" ry="4.20902" transform="matrix(0.654668 0.755917 -0.710464 0.703733 222.836 66.6455)" fill="#D2C8C7"/>
<ellipse cx="4.9307" cy="4.20902" rx="4.9307" ry="4.20902" transform="matrix(0.654668 0.755917 -0.710464 0.703733 245.264 44.4304)" fill="#D2C8C7"/>
<path d="M392.206 172.402C390.554 174.037 387.77 173.695 385.988 171.636C384.205 169.578 384.099 166.583 385.75 164.947C387.402 163.311 390.186 163.654 391.968 165.712C393.751 167.771 393.858 170.766 392.206 172.402Z" fill="#D2C8C7"/>
<path d="M414.634 150.186C412.982 151.822 410.198 151.48 408.415 149.421C406.633 147.363 406.526 144.368 408.178 142.732C409.829 141.096 412.613 141.439 414.396 143.497C416.179 145.556 416.285 148.551 414.634 150.186Z" fill="#D2C8C7"/>
<ellipse cx="4.9307" cy="4.20902" rx="4.9307" ry="4.20902" transform="matrix(0.654668 0.755917 -0.710464 0.703733 364.531 134.031)" fill="#D2C8C7"/>
<ellipse cx="4.9307" cy="4.20902" rx="4.9307" ry="4.20902" transform="matrix(0.654668 0.755917 -0.710464 0.703733 314.329 27.954)" fill="#D2C8C7"/>
<ellipse cx="4.9307" cy="4.20902" rx="4.9307" ry="4.20902" transform="matrix(0.654668 0.755917 -0.710464 0.703733 340.321 106.077)" fill="#D2C8C7"/>
<ellipse cx="4.9307" cy="4.20902" rx="4.9307" ry="4.20902" transform="matrix(0.654668 0.755917 -0.710464 0.703733 386.958 111.816)" fill="#D2C8C7"/>
<ellipse cx="4.9307" cy="4.20902" rx="4.9307" ry="4.20902" transform="matrix(0.654668 0.755917 -0.710464 0.703733 362.748 83.862)" fill="#D2C8C7"/>
<ellipse cx="4.9307" cy="4.20902" rx="4.9307" ry="4.20902" transform="matrix(0.654668 0.755917 -0.710464 0.703733 316.111 78.1231)" fill="#D2C8C7"/>
<ellipse cx="4.9307" cy="4.20902" rx="4.9307" ry="4.20902" transform="matrix(0.654668 0.755917 -0.710464 0.703733 338.539 55.908)" fill="#D2C8C7"/>
<ellipse cx="4.9307" cy="4.20902" rx="4.9307" ry="4.20902" transform="matrix(0.654668 0.755917 -0.710464 0.703733 291.901 50.1692)" fill="#D2C8C7"/>
<ellipse cx="4.9307" cy="4.20902" rx="4.9307" ry="4.20902" transform="matrix(0.654668 0.755917 -0.710464 0.703733 267.691 22.2152)" fill="#D2C8C7"/>
<ellipse cx="4.9307" cy="4.20902" rx="4.9307" ry="4.20902" transform="matrix(0.654668 0.755917 -0.710464 0.703733 290.119 0)" fill="#D2C8C7"/>
<path d="M302.495 261.262C300.844 262.898 298.06 262.556 296.277 260.497C294.494 258.439 294.388 255.444 296.039 253.808C297.691 252.172 300.475 252.515 302.258 254.573C304.04 256.632 304.147 259.626 302.495 261.262Z" fill="#D2C8C7"/>
<path d="M324.923 239.047C323.271 240.683 320.487 240.34 318.705 238.282C316.922 236.224 316.815 233.229 318.467 231.593C320.119 229.957 322.903 230.299 324.685 232.358C326.468 234.416 326.574 237.411 324.923 239.047Z" fill="#D2C8C7"/>
<ellipse cx="4.9307" cy="4.20902" rx="4.9307" ry="4.20902" transform="matrix(0.654668 0.755917 -0.710464 0.703733 274.82 222.892)" fill="#D2C8C7"/>
<ellipse cx="4.9307" cy="4.20902" rx="4.9307" ry="4.20902" transform="matrix(0.654668 0.755917 -0.710464 0.703733 224.618 116.815)" fill="#D2C8C7"/>
<ellipse cx="4.9307" cy="4.20902" rx="4.9307" ry="4.20902" transform="matrix(0.654668 0.755917 -0.710464 0.703733 250.61 194.938)" fill="#D2C8C7"/>
<ellipse cx="4.9307" cy="4.20902" rx="4.9307" ry="4.20902" transform="matrix(0.654668 0.755917 -0.710464 0.703733 297.248 200.677)" fill="#D2C8C7"/>
<ellipse cx="4.9307" cy="4.20902" rx="4.9307" ry="4.20902" transform="matrix(0.654668 0.755917 -0.710464 0.703733 273.038 172.723)" fill="#D2C8C7"/>
<ellipse cx="4.9307" cy="4.20902" rx="4.9307" ry="4.20902" transform="matrix(0.654668 0.755917 -0.710464 0.703733 226.4 166.984)" fill="#D2C8C7"/>
<ellipse cx="4.9307" cy="4.20902" rx="4.9307" ry="4.20902" transform="matrix(0.654668 0.755917 -0.710464 0.703733 248.828 144.769)" fill="#D2C8C7"/>
<ellipse cx="4.9307" cy="4.20902" rx="4.9307" ry="4.20902" transform="matrix(0.654668 0.755917 -0.710464 0.703733 202.19 139.03)" fill="#D2C8C7"/>
<ellipse cx="4.9307" cy="4.20902" rx="4.9307" ry="4.20902" transform="matrix(0.654668 0.755917 -0.710464 0.703733 177.981 111.076)" fill="#D2C8C7"/>
<ellipse cx="4.9307" cy="4.20902" rx="4.9307" ry="4.20902" transform="matrix(0.654668 0.755917 -0.710464 0.703733 200.408 88.8608)" fill="#D2C8C7"/>
</svg>
