<svg width="167" height="149" viewBox="0 0 167 149" fill="none" xmlns="http://www.w3.org/2000/svg">
<mask id="mask0_3_12" style="mask-type:luminance" maskUnits="userSpaceOnUse" x="33" y="20" width="102" height="103">
<path d="M33.4 20.2987H134.936V122.28H33.4V20.2987Z" fill="white"/>
</mask>
<g mask="url(#mask0_3_12)">
<mask id="mask1_3_12" style="mask-type:luminance" maskUnits="userSpaceOnUse" x="9" y="-4" width="177" height="177">
<path d="M9.50513 98.1381L111.06 -3.41534L185.692 71.2145L84.1367 172.77L9.50513 98.1381Z" fill="white"/>
</mask>
<g mask="url(#mask1_3_12)">
<mask id="mask2_3_12" style="mask-type:luminance" maskUnits="userSpaceOnUse" x="9" y="-4" width="177" height="177">
<path d="M9.50513 98.1381L111.06 -3.41534L185.692 71.2145L84.1367 172.77L9.50513 98.1381Z" fill="white"/>
</mask>
<g mask="url(#mask2_3_12)">
<path d="M33.5148 74.1301L33.527 121.969L47.435 121.972L47.7029 121.702L48.7779 120.627L50.9281 118.479L37.0201 118.476L37.0097 74.9372C36.874 74.9372 36.7731 74.9024 36.6391 74.9024C35.5971 74.6676 34.5568 74.4328 33.5148 74.1301ZM86.7165 23.9518C86.7165 24.0196 86.6835 24.0527 86.7165 24.0857C86.7496 24.0527 86.7496 23.9866 86.7165 23.9518ZM90.8811 20.5944C91.0829 21.7356 91.1838 22.9115 91.1838 24.1205L131.363 24.131L131.366 38.0389L134.859 34.5458L134.856 20.6379L90.8811 20.5944ZM96.0789 121.983L134.913 121.991L134.905 83.1568L131.412 86.6498L131.419 118.498L99.572 118.489L96.0789 121.983Z" fill="#C2BCBC"/>
</g>
</g>
</g>
<path d="M82.5327 81.8997V81.176H84.4045C85.7492 81.176 86.6747 80.8542 87.1809 80.2088C87.6854 79.5599 87.9393 78.1317 87.9393 75.9225V36.3644C87.9393 34.249 87.7097 32.8556 87.2505 32.1824C86.7947 31.5109 85.8953 31.1734 84.5506 31.1734H82.5327V30.4567H99.5389V31.1734H97.5905C96.2441 31.1734 95.3674 31.5109 94.9603 32.1824C94.5515 32.8556 94.348 34.249 94.348 36.3644V61.1499L110.63 37.8743C111.688 36.34 112.42 35.2127 112.829 34.4926C113.236 33.7689 113.442 33.2157 113.442 32.8295C113.442 32.2085 113.094 31.7771 112.398 31.5353C111.702 31.2952 110.081 31.1734 107.534 31.1734V30.4567H119.642V31.1734C118.537 31.1734 117.634 31.3439 116.935 31.6814C116.239 32.0154 115.494 32.6764 114.701 33.6645C113.911 34.6491 112.796 36.1486 111.354 38.1666L102.489 50.7751L116.399 74.9831C117.791 77.4794 118.893 79.1355 119.711 79.9514C120.527 80.769 121.271 81.176 121.945 81.176H122.091V81.8997H119.349C117.526 81.8997 116.025 81.7083 114.847 81.3221C113.668 80.9377 112.61 80.1932 111.674 79.0885C110.742 77.9856 109.721 76.4009 108.613 74.336L98.7456 55.959L94.348 62.4442V75.7764C94.348 78.0361 94.5863 79.5025 95.0647 80.174C95.5465 80.842 96.4859 81.176 97.8828 81.176H99.5389V81.8997H82.5327Z" fill="#231F20"/>
<path d="M44.2 81.8997V81.176H46.0718C47.4635 81.176 48.3994 80.8281 48.883 80.1323C49.3648 79.4364 49.6066 77.9595 49.6066 75.6998V36.4339C49.6066 34.176 49.3527 32.7356 48.8482 32.1128C48.342 31.4866 47.3678 31.1734 45.9257 31.1734H44.2V30.4567H61.4219C67.7122 30.4567 72.55 32.6904 75.937 37.1576C79.3222 41.6249 81.0166 47.99 81.0166 56.2513C81.0166 61.5361 80.2946 66.0869 78.8525 69.9035C77.4139 73.7219 75.2411 76.6775 72.3326 78.7684C69.4275 80.8559 65.7656 81.8997 61.3453 81.8997H44.2ZM55.9457 81.176H60.6982C65.4055 81.176 68.8534 79.2068 71.0383 75.2684C73.2232 71.33 74.3157 64.9666 74.3157 56.1747C74.3157 47.816 73.2337 41.5605 71.0731 37.4081C68.9108 33.2522 65.4786 31.1734 60.7748 31.1734H55.9457V81.176Z" fill="#231F20"/>
<path d="M54.4858 121.148C54.2806 121.148 54.084 121.116 53.8944 121.05C53.703 120.986 53.5569 120.901 53.456 120.793L53.5673 120.563C53.6682 120.666 53.8039 120.749 53.9709 120.814C54.1379 120.874 54.3084 120.904 54.4858 120.904C54.7363 120.904 54.9207 120.859 55.0425 120.765C55.1677 120.673 55.2304 120.554 55.2304 120.41C55.2304 120.299 55.1956 120.212 55.126 120.146C55.0599 120.076 54.9799 120.026 54.8825 119.992C54.785 119.956 54.6476 119.916 54.4719 119.874C54.2632 119.819 54.0962 119.768 53.9709 119.721C53.8491 119.671 53.743 119.596 53.6508 119.498C53.5621 119.398 53.5186 119.26 53.5186 119.088C53.5186 118.949 53.5551 118.822 53.63 118.705C53.703 118.59 53.8178 118.5 53.9709 118.434C54.1275 118.364 54.3206 118.329 54.5485 118.329C54.705 118.329 54.8581 118.35 55.0077 118.392C55.1608 118.434 55.293 118.495 55.4043 118.573L55.3069 118.81C55.1904 118.731 55.0651 118.674 54.9312 118.636C54.8007 118.594 54.6737 118.573 54.5485 118.573C54.3014 118.573 54.117 118.622 53.9918 118.719C53.87 118.813 53.8109 118.933 53.8109 119.081C53.8109 119.192 53.8422 119.283 53.9083 119.352C53.9779 119.418 54.0631 119.469 54.1657 119.505C54.2666 119.538 54.4041 119.575 54.5763 119.617C54.7798 119.669 54.9451 119.719 55.0703 119.77C55.1956 119.817 55.3017 119.892 55.3904 119.992C55.4774 120.09 55.5226 120.226 55.5226 120.396C55.5226 120.535 55.4826 120.664 55.4043 120.779C55.3295 120.89 55.213 120.981 55.0564 121.05C54.9033 121.116 54.712 121.148 54.4858 121.148Z" fill="#231F20"/>
<path d="M57.4855 118.601H56.5043V118.35H58.7519V118.601H57.7777V121.127H57.4855V118.601Z" fill="#231F20"/>
<path d="M61.1229 121.148C60.761 121.148 60.4792 121.047 60.2809 120.841C60.0808 120.633 59.9817 120.333 59.9817 119.944V118.35H60.2739V119.93C60.2739 120.25 60.3453 120.492 60.4896 120.653C60.6323 120.812 60.8445 120.89 61.1229 120.89C61.4012 120.89 61.6117 120.812 61.7561 120.653C61.8987 120.492 61.9718 120.25 61.9718 119.93V118.35H62.2571V119.944C62.2571 120.333 62.1562 120.633 61.9579 120.841C61.7578 121.047 61.4795 121.148 61.1229 121.148Z" fill="#231F20"/>
<path d="M63.9264 118.35H65.0536C65.3494 118.35 65.6103 118.411 65.833 118.531C66.0591 118.648 66.2331 118.81 66.3548 119.018C66.4801 119.227 66.5427 119.467 66.5427 119.735C66.5427 120.01 66.4801 120.25 66.3548 120.459C66.2331 120.667 66.0591 120.833 65.833 120.953C65.6103 121.069 65.3494 121.127 65.0536 121.127H63.9264V118.35ZM65.0397 120.876C65.285 120.876 65.499 120.827 65.6799 120.73C65.8608 120.633 66.0017 120.499 66.1043 120.326C66.2052 120.156 66.2574 119.958 66.2574 119.735C66.2574 119.518 66.2052 119.323 66.1043 119.15C66.0017 118.98 65.8608 118.844 65.6799 118.747C65.499 118.649 65.285 118.601 65.0397 118.601H64.2186V120.876H65.0397Z" fill="#231F20"/>
<path d="M67.985 118.35H68.2773V121.127H67.985V118.35Z" fill="#231F20"/>
<path d="M71.1775 121.148C70.9026 121.148 70.6556 121.088 70.433 120.967C70.2103 120.841 70.0363 120.673 69.9111 120.459C69.7858 120.246 69.7232 120.005 69.7232 119.735C69.7232 119.471 69.7858 119.232 69.9111 119.018C70.0363 118.806 70.2103 118.639 70.433 118.517C70.6556 118.392 70.9026 118.329 71.1775 118.329C71.4558 118.329 71.7029 118.39 71.922 118.51C72.1447 118.632 72.3187 118.801 72.4439 119.018C72.5726 119.232 72.6387 119.471 72.6387 119.735C72.6387 120.005 72.5726 120.248 72.4439 120.466C72.3187 120.68 72.1447 120.847 71.922 120.967C71.7029 121.088 71.4558 121.148 71.1775 121.148ZM71.1775 120.89C71.4002 120.89 71.5985 120.841 71.7759 120.744C71.9516 120.643 72.089 120.504 72.1865 120.326C72.2874 120.151 72.3395 119.954 72.3395 119.735C72.3395 119.523 72.2874 119.328 72.1865 119.151C72.089 118.975 71.9516 118.837 71.7759 118.74C71.5985 118.639 71.4002 118.587 71.1775 118.587C70.9583 118.587 70.76 118.639 70.5791 118.74C70.4016 118.837 70.2625 118.975 70.1616 119.151C70.0589 119.328 70.0085 119.523 70.0085 119.735C70.0085 119.954 70.0589 120.151 70.1616 120.326C70.2625 120.504 70.4016 120.643 70.5791 120.744C70.76 120.841 70.9583 120.89 71.1775 120.89Z" fill="#231F20"/>
<path d="M77.0204 121.148C76.6586 121.148 76.3768 121.047 76.1785 120.841C75.9784 120.633 75.8793 120.333 75.8793 119.944V118.35H76.1715V119.93C76.1715 120.25 76.2428 120.492 76.3872 120.653C76.5299 120.812 76.7421 120.89 77.0204 120.89C77.2988 120.89 77.5093 120.812 77.6536 120.653C77.7963 120.492 77.8694 120.25 77.8694 119.93V118.35H78.1546V119.944C78.1546 120.333 78.0538 120.633 77.8554 120.841C77.6554 121.047 77.3771 121.148 77.0204 121.148Z" fill="#231F20"/>
<path d="M81.7166 121.127L81.0834 120.236C81.0138 120.241 80.939 120.243 80.8608 120.243H80.1162V121.127H79.824V118.35H80.8608C81.2174 118.35 81.4957 118.437 81.6958 118.608C81.8941 118.775 81.995 119.008 81.995 119.304C81.995 119.523 81.9393 119.705 81.828 119.853C81.7201 120.003 81.5653 120.109 81.3618 120.173L82.0437 121.127H81.7166ZM80.8538 119.999C81.1269 119.999 81.3357 119.94 81.4801 119.818C81.6279 119.693 81.7027 119.523 81.7027 119.304C81.7027 119.077 81.6279 118.903 81.4801 118.782C81.3357 118.662 81.1269 118.601 80.8538 118.601H80.1162V119.999H80.8538Z" fill="#231F20"/>
<path d="M84.6851 121.148C84.4103 121.148 84.1633 121.088 83.9406 120.967C83.7179 120.841 83.544 120.673 83.4187 120.459C83.2935 120.246 83.2308 120.005 83.2308 119.735C83.2308 119.471 83.2935 119.232 83.4187 119.018C83.544 118.806 83.7179 118.639 83.9406 118.517C84.1633 118.392 84.4103 118.329 84.6851 118.329C84.9635 118.329 85.2105 118.39 85.4297 118.51C85.6523 118.632 85.8263 118.801 85.9515 119.018C86.0803 119.232 86.1464 119.471 86.1464 119.735C86.1464 120.005 86.0803 120.248 85.9515 120.466C85.8263 120.68 85.6523 120.847 85.4297 120.967C85.2105 121.088 84.9635 121.148 84.6851 121.148ZM84.6851 120.89C84.9078 120.89 85.1061 120.841 85.2835 120.744C85.4592 120.643 85.5967 120.504 85.6941 120.326C85.795 120.151 85.8472 119.954 85.8472 119.735C85.8472 119.523 85.795 119.328 85.6941 119.151C85.5967 118.975 85.4592 118.837 85.2835 118.74C85.1061 118.639 84.9078 118.587 84.6851 118.587C84.4659 118.587 84.2676 118.639 84.0867 118.74C83.9093 118.837 83.7701 118.975 83.6692 119.151C83.5666 119.328 83.5161 119.523 83.5161 119.735C83.5161 119.954 83.5666 120.151 83.6692 120.326C83.7701 120.504 83.9093 120.643 84.0867 120.744C84.2676 120.841 84.4659 120.89 84.6851 120.89Z" fill="#231F20"/>
<path d="M87.5845 118.35H88.7118C89.0075 118.35 89.2685 118.411 89.4911 118.531C89.7173 118.648 89.8912 118.81 90.013 119.018C90.1382 119.227 90.2009 119.467 90.2009 119.735C90.2009 120.01 90.1382 120.25 90.013 120.459C89.8912 120.667 89.7173 120.833 89.4911 120.953C89.2685 121.069 89.0075 121.127 88.7118 121.127H87.5845V118.35ZM88.6979 120.876C88.9431 120.876 89.1571 120.827 89.338 120.73C89.519 120.633 89.6599 120.499 89.7625 120.326C89.8634 120.156 89.9156 119.958 89.9156 119.735C89.9156 119.518 89.8634 119.323 89.7625 119.15C89.6599 118.98 89.519 118.844 89.338 118.747C89.1571 118.649 88.9431 118.601 88.6979 118.601H87.8768V120.876H88.6979Z" fill="#231F20"/>
<path d="M92.5964 120.166V121.127H92.3042V120.166L91.1978 118.35H91.5109L92.4573 119.909L93.4106 118.35H93.7028L92.5964 120.166Z" fill="#231F20"/>
<path d="M132.951 40.2873L132.374 39.7167H131.643V39.4245H134.427V39.7167H132.743L134.427 41.3519V41.6929L133.167 40.4891L131.643 41.7764V41.4215L132.951 40.2873Z" fill="#231F20"/>
<path d="M131.622 44.251C131.622 43.9727 131.681 43.7222 131.803 43.4995C131.928 43.2768 132.097 43.1029 132.311 42.9776C132.523 42.8524 132.765 42.7898 133.035 42.7898C133.303 42.7898 133.545 42.8524 133.759 42.9776C133.971 43.1029 134.138 43.2768 134.26 43.4995C134.385 43.7222 134.447 43.9727 134.447 44.251C134.447 44.5241 134.387 44.7729 134.266 44.9956C134.145 45.2182 133.976 45.3922 133.759 45.5174C133.545 45.6427 133.303 45.7053 133.035 45.7053C132.765 45.7053 132.522 45.6427 132.304 45.5174C132.09 45.3922 131.923 45.2182 131.803 44.9956C131.681 44.7729 131.622 44.5241 131.622 44.251ZM131.88 44.251C131.88 44.4685 131.928 44.665 132.026 44.8425C132.127 45.0234 132.266 45.1626 132.443 45.26C132.619 45.3609 132.816 45.4131 133.035 45.4131C133.252 45.4131 133.449 45.3609 133.626 45.26C133.802 45.1626 133.939 45.0234 134.037 44.8425C134.134 44.665 134.183 44.4685 134.183 44.251C134.183 44.0283 134.134 43.8266 134.037 43.6456C133.939 43.4682 133.802 43.329 133.626 43.2281C133.449 43.1255 133.252 43.0751 133.035 43.0751C132.816 43.0751 132.619 43.1255 132.443 43.2281C132.266 43.329 132.127 43.4682 132.026 43.6456C131.928 43.8266 131.88 44.0283 131.88 44.251Z" fill="#231F20"/>
<path d="M131.622 47.9157C131.622 47.7104 131.654 47.5138 131.72 47.3242C131.784 47.1329 131.873 46.9867 131.984 46.8858L132.207 46.9972C132.104 47.0981 132.022 47.2338 131.963 47.4008C131.902 47.5678 131.873 47.7382 131.873 47.9157C131.873 48.1662 131.916 48.354 132.005 48.4793C132.097 48.6045 132.216 48.6672 132.36 48.6672C132.471 48.6672 132.558 48.6324 132.624 48.5628C132.694 48.4967 132.744 48.4132 132.777 48.3123C132.814 48.2149 132.854 48.0792 132.896 47.9087C132.951 47.6947 133.002 47.526 133.049 47.4008C133.099 47.279 133.174 47.1746 133.271 47.0876C133.372 46.9989 133.51 46.9554 133.682 46.9554C133.825 46.9554 133.953 46.9919 134.065 47.0668C134.18 47.1398 134.273 47.2546 134.343 47.4077C134.413 47.5608 134.447 47.7504 134.447 47.9783C134.447 48.1349 134.423 48.2914 134.378 48.4445C134.336 48.5976 134.277 48.7298 134.204 48.8411L133.967 48.7368C134.046 48.6202 134.103 48.4949 134.141 48.361C134.178 48.2305 134.197 48.1035 134.197 47.9783C134.197 47.7313 134.15 47.5469 134.058 47.4216C133.964 47.2999 133.844 47.2407 133.696 47.2407C133.585 47.2407 133.494 47.272 133.425 47.3381C133.358 47.4077 133.308 47.4929 133.271 47.5956C133.233 47.6965 133.195 47.8339 133.153 48.0061C133.101 48.2097 133.051 48.3749 133 48.5002C132.953 48.6289 132.878 48.7368 132.777 48.8203C132.68 48.9072 132.548 48.9525 132.381 48.9525C132.236 48.9525 132.106 48.9142 131.991 48.8411C131.88 48.7663 131.789 48.6498 131.72 48.4932C131.654 48.3349 131.622 48.1418 131.622 47.9157Z" fill="#231F20"/>
<path d="M134.427 53.2657H131.643V52.9874H133.87L131.998 51.8949V51.7558L133.856 50.6633H131.643V50.378H134.427V50.6216L132.36 51.8323L134.427 53.0222V53.2657Z" fill="#231F20"/>
<path d="M131.901 56.9246H131.643V54.9554H134.427V56.862H134.169V55.2477H133.181V56.688H132.93V55.2477H131.901V56.9246Z" fill="#231F20"/>
<path d="M134.169 58.9403V57.9592H134.427V60.2067H134.169V59.2325H131.643V58.9403H134.169Z" fill="#231F20"/>
<path d="M131.622 62.6802C131.622 62.4019 131.681 62.1514 131.803 61.9287C131.928 61.7061 132.097 61.5321 132.311 61.4069C132.523 61.2816 132.765 61.219 133.035 61.219C133.303 61.219 133.545 61.2816 133.759 61.4069C133.971 61.5321 134.138 61.7061 134.26 61.9287C134.385 62.1514 134.447 62.4019 134.447 62.6802C134.447 62.9534 134.387 63.2021 134.266 63.4248C134.145 63.6475 133.976 63.8214 133.759 63.9467C133.545 64.0719 133.303 64.1345 133.035 64.1345C132.765 64.1345 132.522 64.0719 132.304 63.9467C132.09 63.8214 131.923 63.6475 131.803 63.4248C131.681 63.2021 131.622 62.9534 131.622 62.6802ZM131.88 62.6802C131.88 62.8977 131.928 63.0943 132.026 63.2717C132.127 63.4526 132.266 63.5918 132.443 63.6892C132.619 63.7901 132.816 63.8423 133.035 63.8423C133.252 63.8423 133.449 63.7901 133.626 63.6892C133.802 63.5918 133.939 63.4526 134.037 63.2717C134.134 63.0943 134.183 62.8977 134.183 62.6802C134.183 62.4576 134.134 62.2558 134.037 62.0749C133.939 61.8974 133.802 61.7583 133.626 61.6574C133.449 61.5547 133.252 61.5043 133.035 61.5043C132.816 61.5043 132.619 61.5547 132.443 61.6574C132.266 61.7583 132.127 61.8974 132.026 62.0749C131.928 62.2558 131.88 62.4576 131.88 62.6802Z" fill="#231F20"/>
<path d="M134.427 65.5795V65.8717H131.901V67.4304H131.643V65.5795H134.427Z" fill="#231F20"/>
<path d="M131.622 69.9218C131.622 69.6434 131.681 69.3929 131.803 69.1703C131.928 68.9476 132.097 68.7736 132.311 68.6484C132.523 68.5231 132.765 68.4605 133.035 68.4605C133.303 68.4605 133.545 68.5231 133.759 68.6484C133.971 68.7736 134.138 68.9476 134.26 69.1703C134.385 69.3929 134.447 69.6434 134.447 69.9218C134.447 70.1949 134.387 70.4436 134.266 70.6663C134.145 70.889 133.976 71.0629 133.759 71.1882C133.545 71.3134 133.303 71.3761 133.035 71.3761C132.765 71.3761 132.522 71.3134 132.304 71.1882C132.09 71.0629 131.923 70.889 131.803 70.6663C131.681 70.4436 131.622 70.1949 131.622 69.9218ZM131.88 69.9218C131.88 70.1392 131.928 70.3358 132.026 70.5132C132.127 70.6941 132.266 70.8333 132.443 70.9307C132.619 71.0316 132.816 71.0838 133.035 71.0838C133.252 71.0838 133.449 71.0316 133.626 70.9307C133.802 70.8333 133.939 70.6941 134.037 70.5132C134.134 70.3358 134.183 70.1392 134.183 69.9218C134.183 69.6991 134.134 69.4973 134.037 69.3164C133.939 69.1389 133.802 68.9998 133.626 68.8989C133.449 68.7962 133.252 68.7458 133.035 68.7458C132.816 68.7458 132.619 68.7962 132.443 68.8989C132.266 68.9998 132.127 69.1389 132.026 69.3164C131.928 69.4973 131.88 69.6991 131.88 69.9218Z" fill="#231F20"/>
<path d="M133.035 74.7832V75.0616H131.97C131.859 74.9311 131.772 74.778 131.713 74.6023C131.652 74.4249 131.622 74.237 131.622 74.0387C131.622 73.7604 131.681 73.5099 131.803 73.2872C131.923 73.068 132.09 72.8941 132.304 72.7653C132.522 72.6401 132.765 72.5775 133.035 72.5775C133.303 72.5775 133.545 72.6401 133.759 72.7653C133.976 72.8941 134.145 73.068 134.266 73.2872C134.387 73.5099 134.447 73.7621 134.447 74.0457C134.447 74.2579 134.413 74.4527 134.343 74.6302C134.277 74.8059 134.178 74.9537 134.044 75.0755L133.863 74.8946C134.075 74.6754 134.183 74.3971 134.183 74.0596C134.183 73.8317 134.134 73.6282 134.037 73.4472C133.939 73.2663 133.802 73.1219 133.626 73.0158C133.449 72.9132 133.252 72.8627 133.035 72.8627C132.816 72.8627 132.619 72.9132 132.443 73.0158C132.271 73.1219 132.134 73.2663 132.033 73.4472C131.93 73.6282 131.88 73.83 131.88 74.0526C131.88 74.3397 131.951 74.5832 132.095 74.7832H133.035Z" fill="#231F20"/>
<path d="M134.427 76.676V76.9682H131.643V76.676H134.427Z" fill="#231F20"/>
<path d="M132.388 80.4078V78.8561L131.643 78.5221V78.2159L134.427 79.4893V79.7816L131.643 81.048V80.7418L132.388 80.4078ZM132.624 80.2965L134.12 79.6285L132.624 78.9605V80.2965Z" fill="#231F20"/>
<path d="M33.7822 59.4913V58.3641C33.7822 58.0684 33.8431 57.8074 33.9631 57.5847C34.0796 57.3586 34.2414 57.1846 34.4502 57.0629C34.6589 56.9376 34.899 56.875 35.1669 56.875C35.4417 56.875 35.6818 56.9376 35.8905 57.0629C36.0993 57.1846 36.2646 57.3586 36.3846 57.5847C36.5011 57.8074 36.5585 58.0684 36.5585 58.3641V59.4913H33.7822ZM36.308 58.378C36.308 58.1327 36.2593 57.9188 36.1619 57.7378C36.0645 57.5569 35.9306 57.416 35.7583 57.3134C35.5879 57.2125 35.3895 57.1603 35.1669 57.1603C34.9494 57.1603 34.7546 57.2125 34.5824 57.3134C34.4119 57.416 34.2762 57.5569 34.1788 57.7378C34.0814 57.9188 34.0327 58.1327 34.0327 58.378V59.1991H36.308V58.378Z" fill="#231F20"/>
<path d="M36.308 53.4705H36.5585V55.4327H33.7822V53.5261H34.0327V55.1405H35.0207V53.7001H35.2712V55.1405H36.308V53.4705Z" fill="#231F20"/>
<path d="M33.7822 50.9596C33.7822 50.6029 33.8691 50.3246 34.0396 50.1246C34.2066 49.9262 34.4397 49.8253 34.7355 49.8253C35.0329 49.8253 35.2643 49.9262 35.4313 50.1246C35.5983 50.3246 35.6818 50.6029 35.6818 50.9596V51.7041H36.5585V51.9963H33.7822V50.9596ZM35.4243 50.9665C35.4243 50.6934 35.3652 50.4847 35.2434 50.3403C35.1234 50.1924 34.9546 50.1176 34.7355 50.1176C34.5093 50.1176 34.3354 50.1924 34.2136 50.3403C34.0936 50.4847 34.0327 50.6934 34.0327 50.9665V51.7041H35.4243V50.9665Z" fill="#231F20"/>
<path d="M33.7822 48.3658V48.0735H36.5585V48.3658H33.7822Z" fill="#231F20"/>
<path d="M33.7822 46.384V46.0918H36.308V44.5331H36.5585V46.384H33.7822Z" fill="#231F20"/>
<path d="M35.814 41.5252V43.0699L36.5585 43.4039V43.7101L33.7822 42.4367V42.1514L36.5585 40.8781V41.1912L35.814 41.5252ZM35.5774 41.6296L34.0883 42.2976L35.5774 42.9656V41.6296Z" fill="#231F20"/>
<path d="M36.5794 38.4344C36.5794 38.7092 36.5203 38.9562 36.3985 39.1789C36.2785 39.3981 36.1115 39.5686 35.8975 39.6938C35.6801 39.8191 35.4365 39.8817 35.1669 39.8817C34.9025 39.8817 34.6641 39.8191 34.4502 39.6938C34.2327 39.5686 34.064 39.3946 33.9422 39.172C33.8222 38.9493 33.7613 38.7023 33.7613 38.4274C33.7613 38.2239 33.7961 38.0343 33.8657 37.8568C33.9318 37.6811 34.0309 37.5333 34.1649 37.4115L34.3527 37.5994C34.1301 37.8186 34.0187 38.0917 34.0187 38.4205C34.0187 38.6396 34.0709 38.838 34.1718 39.0189C34.2745 39.1998 34.4136 39.3424 34.5893 39.4433C34.7616 39.546 34.9546 39.5964 35.1669 39.5964C35.3861 39.5964 35.5826 39.546 35.7583 39.4433C35.9306 39.3424 36.068 39.1998 36.1689 39.0189C36.2715 38.838 36.322 38.6396 36.322 38.4205C36.322 38.0865 36.2106 37.8133 35.988 37.5994L36.1758 37.4115C36.3063 37.5333 36.4055 37.6811 36.475 37.8568C36.5446 38.0343 36.5794 38.2256 36.5794 38.4344Z" fill="#231F20"/>
<path d="M36.5794 35.7044C36.5794 35.8627 36.5481 36.0106 36.482 36.1497C36.4124 36.2854 36.3133 36.3933 36.1828 36.4768L35.988 36.3028C36.2158 36.1497 36.3289 35.9514 36.3289 35.7044C36.3289 35.3617 36.1254 35.1895 35.7166 35.1895H34.0327V36.2054H33.7822V34.8972H35.7027C35.9949 34.8972 36.2158 34.9668 36.3637 35.106C36.5081 35.2417 36.5794 35.44 36.5794 35.7044Z" fill="#231F20"/>
<path d="M35.814 31.4936V33.0383L36.5585 33.3723V33.6785L33.7822 32.4051V32.1198L36.5585 30.8464V31.1596L35.814 31.4936ZM35.5774 31.5979L34.0883 32.2659L35.5774 32.9339V31.5979Z" fill="#231F20"/>
<path d="M104.01 113.912V113.779H104.289C104.562 113.779 104.75 113.722 104.852 113.606C104.953 113.485 105.005 113.2 105.005 112.75V105.638C105.005 105.189 104.953 104.906 104.852 104.789C104.75 104.669 104.562 104.608 104.289 104.608H104.01V104.476H107.197V104.608H106.891C106.616 104.608 106.428 104.668 106.327 104.782C106.23 104.894 106.181 105.17 106.181 105.61V113.779H108.171C108.709 113.779 109.079 113.679 109.285 113.473C109.493 113.265 109.612 112.892 109.64 112.353L109.695 111.101H109.827L109.744 113.912H104.01Z" fill="#231F20"/>
<path d="M110.237 113.912V113.779H110.62C110.856 113.779 111.027 113.715 111.135 113.585C111.241 113.451 111.352 113.167 111.469 112.736L113.633 104.476H114.502L116.924 113.16C116.993 113.416 117.074 113.583 117.167 113.661C117.26 113.741 117.411 113.779 117.62 113.779H117.717V113.912H114.781V113.779H115.177C115.423 113.779 115.583 113.75 115.657 113.689C115.736 113.625 115.776 113.536 115.776 113.425C115.776 113.318 115.751 113.193 115.706 113.049C115.664 112.901 115.624 112.753 115.588 112.604L115.045 110.474H112.206L111.705 112.381C111.649 112.572 111.597 112.76 111.552 112.944C111.51 113.131 111.489 113.282 111.489 113.397C111.489 113.536 111.531 113.637 111.615 113.696C111.698 113.752 111.851 113.779 112.074 113.779H112.645V113.912H110.237ZM112.248 110.342H115.003L114.134 106.96C114.026 106.529 113.941 106.184 113.876 105.924C113.81 105.664 113.758 105.461 113.716 105.311C113.678 105.158 113.65 105.031 113.633 104.928C113.58 105.156 113.539 105.346 113.507 105.499C113.474 105.649 113.438 105.795 113.396 105.937C113.358 106.082 113.309 106.27 113.25 106.501L112.248 110.342Z" fill="#231F20"/>
<path d="M118.085 113.912V113.779H118.454C118.708 113.779 118.875 113.715 118.955 113.585C119.038 113.451 119.08 113.178 119.08 112.764V105.59C119.08 105.163 119.032 104.894 118.934 104.782C118.837 104.668 118.671 104.608 118.44 104.608H118.085V104.476H121.036C121.949 104.476 122.638 104.662 123.102 105.033C123.57 105.405 123.805 105.977 123.805 106.752C123.805 107.402 123.634 107.903 123.297 108.255C122.958 108.608 122.476 108.823 121.85 108.902V108.93C122.601 108.99 123.165 109.215 123.541 109.604C123.92 109.991 124.111 110.579 124.111 111.372C124.111 113.066 123.186 113.912 121.335 113.912H118.085ZM120.228 108.888H120.98C121.596 108.888 122.02 108.707 122.253 108.345C122.49 107.98 122.608 107.439 122.608 106.724C122.608 106 122.486 105.468 122.246 105.123C122.01 104.781 121.596 104.608 121.008 104.608H120.228V108.888ZM120.228 113.779H121.244C121.851 113.779 122.276 113.595 122.518 113.223C122.763 112.852 122.886 112.249 122.886 111.414C122.886 110.612 122.768 110.013 122.532 109.618C122.298 109.22 121.879 109.02 121.272 109.02H120.228V113.779Z" fill="#231F20"/>
</svg>
