<svg width="112" height="112" viewBox="0 0 112 112" fill="none" xmlns="http://www.w3.org/2000/svg">
<mask id="mask0_199_17" style="mask-type:luminance" maskUnits="userSpaceOnUse" x="22" y="25" width="69" height="70">
<path d="M22.4 25.6853H90.496V94.08H22.4V25.6853Z" fill="white"/>
</mask>
<g mask="url(#mask0_199_17)">
<mask id="mask1_199_17" style="mask-type:luminance" maskUnits="userSpaceOnUse" x="6" y="9" width="119" height="119">
<path d="M6.37466 77.8889L74.4835 9.78125L124.536 59.8324L56.427 127.941L6.37466 77.8889Z" fill="white"/>
</mask>
<g mask="url(#mask1_199_17)">
<mask id="mask2_199_17" style="mask-type:luminance" maskUnits="userSpaceOnUse" x="6" y="9" width="119" height="119">
<path d="M6.37466 77.8889L74.4835 9.78125L124.536 59.8324L56.427 127.941L6.37466 77.8889Z" fill="white"/>
</mask>
<g mask="url(#mask2_199_17)">
<path d="M22.477 61.7877L22.4852 93.871L31.8127 93.8734L31.9923 93.6925L32.7133 92.9715L34.1553 91.5307L24.8278 91.5284L24.8208 62.329C24.7298 62.329 24.6622 62.3057 24.5723 62.3057C23.8735 62.1482 23.1758 61.9907 22.477 61.7877ZM58.1572 28.1352C58.1572 28.1807 58.135 28.2029 58.1572 28.225C58.1793 28.2029 58.1793 28.1585 58.1572 28.1352ZM60.9502 25.8835C61.0855 26.6489 61.1532 27.4375 61.1532 28.2484L88.0997 28.2554L88.102 37.5829L90.4447 35.2402L90.4423 25.9127L60.9502 25.8835ZM64.4362 93.8804L90.4808 93.8862L90.475 67.8415L88.1323 70.1842L88.137 91.5435L66.7788 91.5377L64.4362 93.8804Z" fill="#C2BCBC"/>
</g>
</g>
</g>
<path d="M55.3513 66.9985V66.5131H56.6066C57.5084 66.5131 58.1291 66.2973 58.4686 65.8645C58.8069 65.4293 58.9773 64.4715 58.9773 62.9898V36.4598C58.9773 35.0411 58.8233 34.1066 58.5153 33.6551C58.2096 33.2048 57.6064 32.9785 56.7046 32.9785H55.3513V32.4978H66.7566V32.9785H65.4499C64.5469 32.9785 63.9589 33.2048 63.6859 33.6551C63.4118 34.1066 63.2753 35.0411 63.2753 36.4598V53.0825L74.1953 37.4725C74.9046 36.4435 75.3958 35.6875 75.6699 35.2045C75.9429 34.7191 76.0806 34.3481 76.0806 34.0891C76.0806 33.6726 75.8473 33.3833 75.3806 33.2211C74.9139 33.0601 73.8266 32.9785 72.1186 32.9785V32.4978H80.2386V32.9785C79.4978 32.9785 78.8923 33.0928 78.4233 33.3191C77.9566 33.5431 77.4573 33.9865 76.9253 34.6491C76.3956 35.3095 75.6478 36.3151 74.6806 37.6685L68.7353 46.1245L78.0639 62.3598C78.9973 64.034 79.7369 65.1446 80.2853 65.6918C80.8324 66.2401 81.3318 66.5131 81.7833 66.5131H81.8813V66.9985H80.0426C78.8199 66.9985 77.8131 66.8701 77.0233 66.6111C76.2323 66.3533 75.5229 65.854 74.8953 65.1131C74.2699 64.3735 73.5851 63.3106 72.8419 61.9258L66.2246 49.6011L63.2753 53.9505V62.8918C63.2753 64.4073 63.4351 65.3908 63.7559 65.8411C64.0791 66.2891 64.7091 66.5131 65.6459 66.5131H66.7566V66.9985H55.3513Z" fill="#231F20"/>
<path d="M29.6431 66.9985V66.5131H30.8985C31.8318 66.5131 32.4595 66.2798 32.7838 65.8131C33.107 65.3465 33.2691 64.356 33.2691 62.8405V36.5065C33.2691 34.9921 33.0988 34.0261 32.7605 33.6085C32.421 33.1885 31.7676 32.9785 30.8005 32.9785H29.6431V32.4978H41.1931C45.4118 32.4978 48.6563 33.9958 50.9278 36.9918C53.1981 39.9878 54.3345 44.2566 54.3345 49.7971C54.3345 53.3415 53.8503 56.3935 52.8831 58.9531C51.9183 61.514 50.4611 63.4961 48.5105 64.8985C46.5621 66.2985 44.1063 66.9985 41.1418 66.9985H29.6431ZM37.5205 66.5131H40.7078C43.8648 66.5131 46.1771 65.1925 47.6425 62.5511C49.1078 59.9098 49.8405 55.6421 49.8405 49.7458C49.8405 44.14 49.1148 39.9446 47.6658 37.1598C46.2156 34.3726 43.9138 32.9785 40.7591 32.9785H37.5205V66.5131Z" fill="#231F20"/>
<path d="M36.5414 93.3204C36.4037 93.3204 36.2719 93.2994 36.1447 93.2551C36.0164 93.2119 35.9184 93.1548 35.8507 93.0824L35.9254 92.9284C35.993 92.9973 36.084 93.0533 36.196 93.0964C36.308 93.1373 36.4224 93.1571 36.5414 93.1571C36.7094 93.1571 36.833 93.1268 36.9147 93.0638C36.9987 93.0019 37.0407 92.9226 37.0407 92.8258C37.0407 92.7511 37.0174 92.6928 36.9707 92.6484C36.9264 92.6018 36.8727 92.5679 36.8074 92.5458C36.742 92.5213 36.6499 92.4944 36.532 92.4664C36.392 92.4291 36.28 92.3953 36.196 92.3638C36.1144 92.3299 36.0432 92.2798 35.9814 92.2144C35.9219 92.1468 35.8927 92.0546 35.8927 91.9391C35.8927 91.8458 35.9172 91.7606 35.9674 91.6824C36.0164 91.6054 36.0934 91.5448 36.196 91.5004C36.301 91.4538 36.4305 91.4304 36.5834 91.4304C36.6884 91.4304 36.791 91.4444 36.8914 91.4724C36.994 91.5004 37.0827 91.5413 37.1574 91.5938L37.092 91.7524C37.0139 91.6999 36.9299 91.6614 36.84 91.6358C36.7525 91.6078 36.6674 91.5938 36.5834 91.5938C36.4177 91.5938 36.294 91.6264 36.21 91.6918C36.1284 91.7548 36.0887 91.8353 36.0887 91.9344C36.0887 92.0091 36.1097 92.0698 36.154 92.1164C36.2007 92.1608 36.2579 92.1946 36.3267 92.2191C36.3944 92.2413 36.4865 92.2658 36.602 92.2938C36.7385 92.3288 36.8494 92.3626 36.9334 92.3964C37.0174 92.4279 37.0885 92.4781 37.148 92.5458C37.2064 92.6111 37.2367 92.7021 37.2367 92.8164C37.2367 92.9098 37.2099 92.9961 37.1574 93.0731C37.1072 93.1478 37.029 93.2084 36.924 93.2551C36.8214 93.2994 36.693 93.3204 36.5414 93.3204Z" fill="#231F20"/>
<path d="M38.5531 91.6126H37.8951V91.4446H39.4024V91.6126H38.7491V93.3066H38.5531V91.6126Z" fill="#231F20"/>
<path d="M40.9926 93.3206C40.7499 93.3206 40.5609 93.2529 40.4279 93.1152C40.2937 92.9752 40.2272 92.7746 40.2272 92.5132V91.4446H40.4232V92.5039C40.4232 92.7186 40.4711 92.8807 40.5679 92.9892C40.6636 93.0954 40.8059 93.1479 40.9926 93.1479C41.1792 93.1479 41.3204 93.0954 41.4172 92.9892C41.5129 92.8807 41.5619 92.7186 41.5619 92.5039V91.4446H41.7532V92.5132C41.7532 92.7746 41.6856 92.9752 41.5526 93.1152C41.4184 93.2529 41.2317 93.3206 40.9926 93.3206Z" fill="#231F20"/>
<path d="M42.8728 91.4446H43.6288C43.8271 91.4446 44.0021 91.4854 44.1515 91.5659C44.3031 91.6441 44.4198 91.7526 44.5015 91.8926C44.5855 92.0326 44.6275 92.1936 44.6275 92.3732C44.6275 92.5576 44.5855 92.7186 44.5015 92.8586C44.4198 92.9986 44.3031 93.1094 44.1515 93.1899C44.0021 93.2681 43.8271 93.3066 43.6288 93.3066H42.8728V91.4446ZM43.6195 93.1386C43.784 93.1386 43.9275 93.1059 44.0488 93.0406C44.1701 92.9752 44.2646 92.8854 44.3335 92.7699C44.4011 92.6556 44.4361 92.5226 44.4361 92.3732C44.4361 92.2274 44.4011 92.0967 44.3335 91.9812C44.2646 91.8669 44.1701 91.7759 44.0488 91.7106C43.9275 91.6452 43.784 91.6126 43.6195 91.6126H43.0688V93.1386H43.6195Z" fill="#231F20"/>
<path d="M45.5948 91.4446H45.7908V93.3066H45.5948V91.4446Z" fill="#231F20"/>
<path d="M47.7358 93.3204C47.5515 93.3204 47.3858 93.2808 47.2365 93.1991C47.0871 93.1151 46.9705 93.0019 46.8865 92.8584C46.8025 92.7161 46.7605 92.5539 46.7605 92.3731C46.7605 92.1958 46.8025 92.0359 46.8865 91.8924C46.9705 91.7501 47.0871 91.6381 47.2365 91.5564C47.3858 91.4724 47.5515 91.4304 47.7358 91.4304C47.9225 91.4304 48.0881 91.4713 48.2351 91.5518C48.3845 91.6334 48.5011 91.7466 48.5851 91.8924C48.6715 92.0359 48.7158 92.1958 48.7158 92.3731C48.7158 92.5539 48.6715 92.7173 48.5851 92.8631C48.5011 93.0066 48.3845 93.1186 48.2351 93.1991C48.0881 93.2808 47.9225 93.3204 47.7358 93.3204ZM47.7358 93.1478C47.8851 93.1478 48.0181 93.1151 48.1371 93.0498C48.255 92.9821 48.3471 92.8888 48.4125 92.7698C48.4801 92.6519 48.5151 92.5201 48.5151 92.3731C48.5151 92.2308 48.4801 92.1001 48.4125 91.9811C48.3471 91.8633 48.255 91.7711 48.1371 91.7058C48.0181 91.6381 47.8851 91.6031 47.7358 91.6031C47.5888 91.6031 47.4558 91.6381 47.3345 91.7058C47.2155 91.7711 47.1221 91.8633 47.0545 91.9811C46.9856 92.1001 46.9518 92.2308 46.9518 92.3731C46.9518 92.5201 46.9856 92.6519 47.0545 92.7698C47.1221 92.8888 47.2155 92.9821 47.3345 93.0498C47.4558 93.1151 47.5888 93.1478 47.7358 93.1478Z" fill="#231F20"/>
<path d="M51.6544 93.3206C51.4117 93.3206 51.2227 93.2529 51.0897 93.1152C50.9556 92.9752 50.8891 92.7746 50.8891 92.5132V91.4446H51.0851V92.5039C51.0851 92.7186 51.1329 92.8807 51.2297 92.9892C51.3254 93.0954 51.4677 93.1479 51.6544 93.1479C51.8411 93.1479 51.9822 93.0954 52.0791 92.9892C52.1747 92.8807 52.2237 92.7186 52.2237 92.5039V91.4446H52.4151V92.5132C52.4151 92.7746 52.3474 92.9752 52.2144 93.1152C52.0802 93.2529 51.8936 93.3206 51.6544 93.3206Z" fill="#231F20"/>
<path d="M54.804 93.3066L54.3793 92.7092C54.3326 92.7127 54.2825 92.7139 54.23 92.7139H53.7306V93.3066H53.5346V91.4446H54.23C54.4691 91.4446 54.6558 91.5029 54.79 91.6172C54.923 91.7292 54.9906 91.8856 54.9906 92.0839C54.9906 92.2309 54.9533 92.3534 54.8786 92.4526C54.8063 92.5529 54.7025 92.6241 54.566 92.6672L55.0233 93.3066H54.804ZM54.2253 92.5506C54.4085 92.5506 54.5485 92.5109 54.6453 92.4292C54.7445 92.3452 54.7946 92.2309 54.7946 92.0839C54.7946 91.9322 54.7445 91.8156 54.6453 91.7339C54.5485 91.6534 54.4085 91.6126 54.2253 91.6126H53.7306V92.5506H54.2253Z" fill="#231F20"/>
<path d="M56.7948 93.3204C56.6105 93.3204 56.4448 93.2808 56.2955 93.1991C56.1461 93.1151 56.0295 93.0019 55.9455 92.8584C55.8615 92.7161 55.8195 92.5539 55.8195 92.3731C55.8195 92.1958 55.8615 92.0359 55.9455 91.8924C56.0295 91.7501 56.1461 91.6381 56.2955 91.5564C56.4448 91.4724 56.6105 91.4304 56.7948 91.4304C56.9815 91.4304 57.1471 91.4713 57.2941 91.5518C57.4435 91.6334 57.5601 91.7466 57.6441 91.8924C57.7305 92.0359 57.7748 92.1958 57.7748 92.3731C57.7748 92.5539 57.7305 92.7173 57.6441 92.8631C57.5601 93.0066 57.4435 93.1186 57.2941 93.1991C57.1471 93.2808 56.9815 93.3204 56.7948 93.3204ZM56.7948 93.1478C56.9441 93.1478 57.0771 93.1151 57.1961 93.0498C57.314 92.9821 57.4061 92.8888 57.4715 92.7698C57.5391 92.6519 57.5741 92.5201 57.5741 92.3731C57.5741 92.2308 57.5391 92.1001 57.4715 91.9811C57.4061 91.8633 57.314 91.7711 57.1961 91.7058C57.0771 91.6381 56.9441 91.6031 56.7948 91.6031C56.6478 91.6031 56.5148 91.6381 56.3935 91.7058C56.2745 91.7711 56.1811 91.8633 56.1135 91.9811C56.0446 92.1001 56.0108 92.2308 56.0108 92.3731C56.0108 92.5201 56.0446 92.6519 56.1135 92.7698C56.1811 92.8888 56.2745 92.9821 56.3935 93.0498C56.5148 93.1151 56.6478 93.1478 56.7948 93.1478Z" fill="#231F20"/>
<path d="M58.7393 91.4446H59.4953C59.6937 91.4446 59.8687 91.4854 60.018 91.5659C60.1697 91.6441 60.2863 91.7526 60.368 91.8926C60.452 92.0326 60.494 92.1936 60.494 92.3732C60.494 92.5576 60.452 92.7186 60.368 92.8586C60.2863 92.9986 60.1697 93.1094 60.018 93.1899C59.8687 93.2681 59.6937 93.3066 59.4953 93.3066H58.7393V91.4446ZM59.486 93.1386C59.6505 93.1386 59.794 93.1059 59.9153 93.0406C60.0367 92.9752 60.1312 92.8854 60.2 92.7699C60.2677 92.6556 60.3027 92.5226 60.3027 92.3732C60.3027 92.2274 60.2677 92.0967 60.2 91.9812C60.1312 91.8669 60.0367 91.7759 59.9153 91.7106C59.794 91.6452 59.6505 91.6126 59.486 91.6126H58.9353V93.1386H59.486Z" fill="#231F20"/>
<path d="M62.1006 92.6626V93.3066H61.9046V92.6626L61.1626 91.4446H61.3726L62.0073 92.4899L62.6466 91.4446H62.8426L62.1006 92.6626Z" fill="#231F20"/>
<path d="M89.165 39.0909L88.7777 38.7082H88.2877V38.5122H90.1543V38.7082H89.025L90.1543 39.8049V40.0335L89.3097 39.2262L88.2877 40.0895V39.8515L89.165 39.0909Z" fill="#231F20"/>
<path d="M88.2737 41.7493C88.2737 41.5626 88.3133 41.3946 88.395 41.2453C88.479 41.096 88.5922 40.9793 88.7357 40.8953C88.878 40.8113 89.0402 40.7693 89.221 40.7693C89.4007 40.7693 89.5628 40.8113 89.7063 40.8953C89.8487 40.9793 89.9607 41.096 90.0423 41.2453C90.1263 41.3946 90.1683 41.5626 90.1683 41.7493C90.1683 41.9325 90.1275 42.0993 90.047 42.2486C89.9653 42.398 89.8522 42.5146 89.7063 42.5986C89.5628 42.6826 89.4007 42.7246 89.221 42.7246C89.0402 42.7246 88.8768 42.6826 88.731 42.5986C88.5875 42.5146 88.4755 42.398 88.395 42.2486C88.3133 42.0993 88.2737 41.9325 88.2737 41.7493ZM88.4463 41.7493C88.4463 41.8951 88.479 42.027 88.5443 42.146C88.612 42.2673 88.7053 42.3606 88.8243 42.426C88.9422 42.4936 89.074 42.5286 89.221 42.5286C89.3668 42.5286 89.4987 42.4936 89.6177 42.426C89.7355 42.3606 89.8277 42.2673 89.893 42.146C89.9583 42.027 89.991 41.8951 89.991 41.7493C89.991 41.6 89.9583 41.4646 89.893 41.3433C89.8277 41.2243 89.7355 41.131 89.6177 41.0633C89.4987 40.9945 89.3668 40.9606 89.221 40.9606C89.074 40.9606 88.9422 40.9945 88.8243 41.0633C88.7053 41.131 88.612 41.2243 88.5443 41.3433C88.479 41.4646 88.4463 41.6 88.4463 41.7493Z" fill="#231F20"/>
<path d="M88.2737 44.207C88.2737 44.0694 88.2947 43.9375 88.339 43.8104C88.3822 43.682 88.4417 43.584 88.5163 43.5164L88.6657 43.591C88.5968 43.6587 88.542 43.7497 88.5023 43.8617C88.4615 43.9737 88.4417 44.088 88.4417 44.207C88.4417 44.375 88.4708 44.501 88.5303 44.585C88.5922 44.669 88.6715 44.711 88.7683 44.711C88.843 44.711 88.9013 44.6877 88.9457 44.641C88.9923 44.5967 89.0262 44.5407 89.0483 44.473C89.0728 44.4077 89.0997 44.3167 89.1277 44.2024C89.165 44.0589 89.1988 43.9457 89.2303 43.8617C89.2642 43.78 89.3143 43.71 89.3797 43.6517C89.4473 43.5922 89.5395 43.563 89.655 43.563C89.7507 43.563 89.837 43.5875 89.9117 43.6377C89.9887 43.6867 90.0517 43.7637 90.0983 43.8664C90.145 43.969 90.1683 44.0962 90.1683 44.249C90.1683 44.354 90.152 44.459 90.1217 44.5617C90.0937 44.6644 90.054 44.753 90.005 44.8277L89.8463 44.7577C89.8988 44.6795 89.9373 44.5955 89.963 44.5057C89.9875 44.4182 90.0003 44.333 90.0003 44.249C90.0003 44.0834 89.9688 43.9597 89.907 43.8757C89.844 43.794 89.7635 43.7544 89.6643 43.7544C89.5897 43.7544 89.529 43.7754 89.4823 43.8197C89.438 43.8664 89.4042 43.9235 89.3797 43.9924C89.354 44.06 89.3283 44.1522 89.3003 44.2677C89.2653 44.4042 89.2315 44.515 89.1977 44.599C89.1662 44.6854 89.116 44.7577 89.0483 44.8137C88.983 44.872 88.8943 44.9024 88.7823 44.9024C88.6855 44.9024 88.598 44.8767 88.521 44.8277C88.4463 44.7775 88.3857 44.6994 88.339 44.5944C88.2947 44.4882 88.2737 44.3587 88.2737 44.207Z" fill="#231F20"/>
<path d="M90.1543 47.7951H88.2877V47.6084H89.781L88.5257 46.8757V46.7824L89.7717 46.0497H88.2877V45.8584H90.1543V46.0217L88.7683 46.8337L90.1543 47.6317V47.7951Z" fill="#231F20"/>
<path d="M88.4603 50.2489H88.2877V48.9282H90.1543V50.2069H89.9817V49.1242H89.319V50.0902H89.151V49.1242H88.4603V50.2489Z" fill="#231F20"/>
<path d="M89.9817 51.6006V50.9426H90.1543V52.45H89.9817V51.7966H88.2877V51.6006H89.9817Z" fill="#231F20"/>
<path d="M88.2737 54.1089C88.2737 53.9222 88.3133 53.7542 88.395 53.6049C88.479 53.4556 88.5922 53.3389 88.7357 53.2549C88.878 53.1709 89.0402 53.1289 89.221 53.1289C89.4007 53.1289 89.5628 53.1709 89.7063 53.2549C89.8487 53.3389 89.9607 53.4556 90.0423 53.6049C90.1263 53.7542 90.1683 53.9222 90.1683 54.1089C90.1683 54.2921 90.1275 54.4589 90.047 54.6082C89.9653 54.7576 89.8522 54.8742 89.7063 54.9582C89.5628 55.0422 89.4007 55.0842 89.221 55.0842C89.0402 55.0842 88.8768 55.0422 88.731 54.9582C88.5875 54.8742 88.4755 54.7576 88.395 54.6082C88.3133 54.4589 88.2737 54.2921 88.2737 54.1089ZM88.4463 54.1089C88.4463 54.2547 88.479 54.3866 88.5443 54.5056C88.612 54.6269 88.7053 54.7202 88.8243 54.7856C88.9422 54.8532 89.074 54.8882 89.221 54.8882C89.3668 54.8882 89.4987 54.8532 89.6177 54.7856C89.7355 54.7202 89.8277 54.6269 89.893 54.5056C89.9583 54.3866 89.991 54.2547 89.991 54.1089C89.991 53.9596 89.9583 53.8242 89.893 53.7029C89.8277 53.5839 89.7355 53.4906 89.6177 53.4229C89.4987 53.3541 89.3668 53.3202 89.221 53.3202C89.074 53.3202 88.9422 53.3541 88.8243 53.4229C88.7053 53.4906 88.612 53.5839 88.5443 53.7029C88.479 53.8242 88.4463 53.9596 88.4463 54.1089Z" fill="#231F20"/>
<path d="M90.1543 56.0532V56.2492H88.4603V57.2946H88.2877V56.0532H90.1543Z" fill="#231F20"/>
<path d="M88.2737 58.9656C88.2737 58.7789 88.3133 58.6109 88.395 58.4616C88.479 58.3123 88.5922 58.1956 88.7357 58.1116C88.878 58.0276 89.0402 57.9856 89.221 57.9856C89.4007 57.9856 89.5628 58.0276 89.7063 58.1116C89.8487 58.1956 89.9607 58.3123 90.0423 58.4616C90.1263 58.6109 90.1683 58.7789 90.1683 58.9656C90.1683 59.1488 90.1275 59.3156 90.047 59.4649C89.9653 59.6143 89.8522 59.7309 89.7063 59.8149C89.5628 59.8989 89.4007 59.9409 89.221 59.9409C89.0402 59.9409 88.8768 59.8989 88.731 59.8149C88.5875 59.7309 88.4755 59.6143 88.395 59.4649C88.3133 59.3156 88.2737 59.1488 88.2737 58.9656ZM88.4463 58.9656C88.4463 59.1114 88.479 59.2433 88.5443 59.3623C88.612 59.4836 88.7053 59.5769 88.8243 59.6423C88.9422 59.7099 89.074 59.7449 89.221 59.7449C89.3668 59.7449 89.4987 59.7099 89.6177 59.6423C89.7355 59.5769 89.8277 59.4836 89.893 59.3623C89.9583 59.2433 89.991 59.1114 89.991 58.9656C89.991 58.8163 89.9583 58.6809 89.893 58.5596C89.8277 58.4406 89.7355 58.3473 89.6177 58.2796C89.4987 58.2108 89.3668 58.1769 89.221 58.1769C89.074 58.1769 88.9422 58.2108 88.8243 58.2796C88.7053 58.3473 88.612 58.4406 88.5443 58.5596C88.479 58.6809 88.4463 58.8163 88.4463 58.9656Z" fill="#231F20"/>
<path d="M89.221 62.2259V62.4126H88.507C88.4323 62.3251 88.374 62.2224 88.3343 62.1046C88.2935 61.9856 88.2737 61.8596 88.2737 61.7266C88.2737 61.5399 88.3133 61.3719 88.395 61.2226C88.4755 61.0756 88.5875 60.9589 88.731 60.8726C88.8768 60.7886 89.0402 60.7466 89.221 60.7466C89.4007 60.7466 89.5628 60.7886 89.7063 60.8726C89.8522 60.9589 89.9653 61.0756 90.047 61.2226C90.1275 61.3719 90.1683 61.5411 90.1683 61.7312C90.1683 61.8736 90.145 62.0042 90.0983 62.1232C90.054 62.2411 89.9875 62.3402 89.8977 62.4219L89.7763 62.3006C89.9187 62.1536 89.991 61.9669 89.991 61.7406C89.991 61.5877 89.9583 61.4512 89.893 61.3299C89.8277 61.2086 89.7355 61.1117 89.6177 61.0406C89.4987 60.9717 89.3668 60.9379 89.221 60.9379C89.074 60.9379 88.9422 60.9717 88.8243 61.0406C88.7088 61.1117 88.6167 61.2086 88.549 61.3299C88.4802 61.4512 88.4463 61.5866 88.4463 61.7359C88.4463 61.9284 88.4942 62.0917 88.591 62.2259H89.221Z" fill="#231F20"/>
<path d="M90.1543 63.4954V63.6914H88.2877V63.4954H90.1543Z" fill="#231F20"/>
<path d="M88.787 65.9981V64.9574L88.2877 64.7334V64.5281L90.1543 65.3821V65.5781L88.2877 66.4274V66.2221L88.787 65.9981ZM88.9457 65.9234L89.949 65.4754L88.9457 65.0274V65.9234Z" fill="#231F20"/>
<path d="M22.6563 51.9702V51.2142C22.6563 51.0159 22.6971 50.8409 22.7776 50.6916C22.8558 50.5399 22.9643 50.4232 23.1043 50.3416C23.2443 50.2576 23.4053 50.2156 23.585 50.2156C23.7693 50.2156 23.9303 50.2576 24.0703 50.3416C24.2103 50.4232 24.3211 50.5399 24.4016 50.6916C24.4798 50.8409 24.5183 51.0159 24.5183 51.2142V51.9702H22.6563ZM24.3503 51.2236C24.3503 51.0591 24.3176 50.9156 24.2523 50.7942C24.187 50.6729 24.0971 50.5784 23.9816 50.5096C23.8673 50.4419 23.7343 50.4069 23.585 50.4069C23.4391 50.4069 23.3085 50.4419 23.193 50.5096C23.0786 50.5784 22.9876 50.6729 22.9223 50.7942C22.857 50.9156 22.8243 51.0591 22.8243 51.2236V51.7742H24.3503V51.2236Z" fill="#231F20"/>
<path d="M24.3503 47.9324H24.5183V49.2484H22.6563V47.9697H22.8243V49.0524H23.487V48.0864H23.655V49.0524H24.3503V47.9324Z" fill="#231F20"/>
<path d="M22.6563 46.2482C22.6563 46.009 22.7146 45.8224 22.829 45.6882C22.941 45.5552 23.0973 45.4875 23.2956 45.4875C23.4951 45.4875 23.6503 45.5552 23.7623 45.6882C23.8743 45.8224 23.9303 46.009 23.9303 46.2482V46.7475H24.5183V46.9435H22.6563V46.2482ZM23.7576 46.2529C23.7576 46.0697 23.718 45.9297 23.6363 45.8329C23.5558 45.7337 23.4426 45.6835 23.2956 45.6835C23.144 45.6835 23.0273 45.7337 22.9456 45.8329C22.8651 45.9297 22.8243 46.0697 22.8243 46.2529V46.7475H23.7576V46.2529Z" fill="#231F20"/>
<path d="M22.6563 44.5087V44.3127H24.5183V44.5087H22.6563Z" fill="#231F20"/>
<path d="M22.6563 43.1798V42.9838H24.3503V41.9385H24.5183V43.1798H22.6563Z" fill="#231F20"/>
<path d="M24.019 39.9211V40.9571L24.5183 41.1811V41.3864L22.6563 40.5324V40.3411L24.5183 39.4871V39.6971L24.019 39.9211ZM23.8603 39.9911L22.8616 40.4391L23.8603 40.8871V39.9911Z" fill="#231F20"/>
<path d="M24.5323 37.8481C24.5323 38.0324 24.4926 38.1981 24.411 38.3474C24.3305 38.4944 24.2185 38.6088 24.075 38.6928C23.9291 38.7768 23.7658 38.8188 23.585 38.8188C23.4076 38.8188 23.2478 38.7768 23.1043 38.6928C22.9585 38.6088 22.8453 38.4921 22.7636 38.3428C22.6831 38.1934 22.6423 38.0278 22.6423 37.8434C22.6423 37.7069 22.6656 37.5798 22.7123 37.4608C22.7566 37.3429 22.8231 37.2438 22.913 37.1621L23.039 37.2881C22.8896 37.4351 22.815 37.6183 22.815 37.8388C22.815 37.9858 22.85 38.1188 22.9176 38.2401C22.9865 38.3614 23.0798 38.4571 23.1976 38.5248C23.3131 38.5936 23.4426 38.6274 23.585 38.6274C23.732 38.6274 23.8638 38.5936 23.9816 38.5248C24.0971 38.4571 24.1893 38.3614 24.257 38.2401C24.3258 38.1188 24.3596 37.9858 24.3596 37.8388C24.3596 37.6148 24.285 37.4316 24.1356 37.2881L24.2616 37.1621C24.3491 37.2438 24.4156 37.3429 24.4623 37.4608C24.509 37.5798 24.5323 37.7081 24.5323 37.8481Z" fill="#231F20"/>
<path d="M24.5323 36.0174C24.5323 36.1236 24.5113 36.2227 24.467 36.3161C24.4203 36.4071 24.3538 36.4794 24.2663 36.5354L24.1356 36.4187C24.2885 36.3161 24.3643 36.1831 24.3643 36.0174C24.3643 35.7876 24.2278 35.6721 23.9536 35.6721H22.8243V36.3534H22.6563V35.4761H23.9443C24.1403 35.4761 24.2885 35.5227 24.3876 35.6161C24.4845 35.7071 24.5323 35.8401 24.5323 36.0174Z" fill="#231F20"/>
<path d="M24.019 33.1933V34.2293L24.5183 34.4533V34.6586L22.6563 33.8046V33.6133L24.5183 32.7593V32.9693L24.019 33.1933ZM23.8603 33.2633L22.8616 33.7113L23.8603 34.1593V33.2633Z" fill="#231F20"/>
<path d="M69.7554 88.4676V88.379H69.9421C70.1253 88.379 70.2513 88.3405 70.3201 88.2623C70.3878 88.1818 70.4228 87.9905 70.4228 87.6883V82.919C70.4228 82.618 70.3878 82.4278 70.3201 82.3496C70.2513 82.2691 70.1253 82.2283 69.9421 82.2283H69.7554V82.1396H71.8928V82.2283H71.6874C71.5031 82.2283 71.3771 82.268 71.3094 82.345C71.2441 82.4196 71.2114 82.6051 71.2114 82.9003V88.379H72.5461C72.9066 88.379 73.1551 88.3113 73.2928 88.1736C73.4328 88.0336 73.5121 87.784 73.5308 87.4223L73.5681 86.5823H73.6568L73.6008 88.4676H69.7554Z" fill="#231F20"/>
<path d="M73.9313 88.4676V88.379H74.188C74.3467 88.379 74.461 88.3358 74.5333 88.2483C74.6045 88.1585 74.6792 87.9683 74.7573 87.679L76.2087 82.1396H76.792L78.416 87.9636C78.4627 88.1351 78.5163 88.2471 78.5793 88.2996C78.6412 88.3533 78.7427 88.379 78.8827 88.379H78.948V88.4676H76.9787V88.379H77.2447C77.4092 88.379 77.5165 88.3591 77.5667 88.3183C77.6192 88.2751 77.646 88.2156 77.646 88.141C77.646 88.0698 77.6297 87.9858 77.5993 87.889C77.5713 87.7898 77.5445 87.6906 77.52 87.5903L77.156 86.1623H75.252L74.916 87.441C74.8787 87.5693 74.8437 87.6953 74.8133 87.819C74.7853 87.9438 74.7713 88.0453 74.7713 88.1223C74.7713 88.2156 74.7993 88.2833 74.8553 88.323C74.9113 88.3603 75.014 88.379 75.1633 88.379H75.546V88.4676H73.9313ZM75.28 86.0736H77.128L76.5447 83.8056C76.4723 83.5163 76.4152 83.2853 76.372 83.1103C76.3277 82.9365 76.2927 82.8 76.2647 82.6996C76.239 82.597 76.2203 82.5118 76.2087 82.443C76.1737 82.5958 76.1457 82.723 76.1247 82.8256C76.1025 82.926 76.078 83.024 76.05 83.1196C76.0243 83.2165 75.9917 83.3425 75.952 83.4976L75.28 86.0736Z" fill="#231F20"/>
<path d="M79.1949 88.4676V88.379H79.4422C79.6125 88.379 79.7245 88.3358 79.7782 88.2483C79.8342 88.1585 79.8622 87.9753 79.8622 87.6976V82.8863C79.8622 82.6005 79.8295 82.4196 79.7642 82.345C79.6989 82.268 79.588 82.2283 79.4329 82.2283H79.1949V82.1396H81.1735C81.786 82.1396 82.248 82.2645 82.5595 82.513C82.8734 82.7626 83.0309 83.1465 83.0309 83.6656C83.0309 84.102 82.9165 84.438 82.6902 84.6736C82.4627 84.9105 82.1395 85.0551 81.7195 85.1076V85.1263C82.2235 85.1671 82.6015 85.3176 82.8535 85.579C83.1079 85.838 83.2362 86.2323 83.2362 86.7643C83.2362 87.9006 82.6155 88.4676 81.3742 88.4676H79.1949ZM80.6322 85.0983H81.1362C81.5492 85.0983 81.8339 84.977 81.9902 84.7343C82.1489 84.4893 82.2282 84.1265 82.2282 83.647C82.2282 83.1616 82.1465 82.8046 81.9855 82.5736C81.8269 82.3438 81.5492 82.2283 81.1549 82.2283H80.6322V85.0983ZM80.6322 88.379H81.3135C81.7207 88.379 82.0054 88.2553 82.1675 88.0056C82.332 87.7571 82.4149 87.3523 82.4149 86.7923C82.4149 86.2545 82.3355 85.8531 82.1769 85.5883C82.0205 85.3211 81.7394 85.187 81.3322 85.187H80.6322V88.379Z" fill="#231F20"/>
</svg>
